<svg width="53" height="38" viewBox="0 0 53 38" fill="none" xmlns="http://www.w3.org/2000/svg">
<circle cx="26.8907" cy="29.2306" r="7.68369" stroke="#308AE4"/>
<path d="M23.7746 28.4457C23.6657 29.0446 23.7745 29.2251 23.7746 30.0045C23.7747 30.7839 22.6038 28.8378 22.6055 29.6148V30.7839V31.953C22.6055 31.953 22.8497 32.1918 23.3849 32.7324C23.9201 33.273 24.554 33.5118 24.554 33.5118C24.554 33.5118 25.4484 34.1435 26.1128 34.2912C26.707 34.4232 27.0773 34.4232 27.6716 34.2912C28.336 34.1435 28.68 33.9121 29.2304 33.5118C29.7526 33.132 29.9942 32.8453 30.3995 32.3427C30.7439 31.9156 31.0345 31.703 31.1789 31.1736C31.299 30.7331 31.1789 30.4611 31.1789 30.0045C31.1789 29.5479 31.299 29.2759 31.1789 28.8354C31.0893 28.5071 30.9829 28.3358 30.7892 28.056C30.5442 27.7021 30.4402 27.2766 30.0098 27.2766C29.5793 27.2766 29.5072 27.7264 29.2304 28.056C28.8775 28.4762 28.8392 29.2251 28.451 29.2251C28.0628 29.2251 28.0613 28.8354 28.0613 28.8354C28.0613 28.8354 27.8056 28.3688 27.6716 28.056C27.482 27.6136 27.3569 27.3623 27.2819 26.8869C27.2107 26.4359 27.2819 26.1744 27.2819 25.7178C27.2819 25.109 27.8264 24.4312 27.2819 24.159C26.8514 23.9438 26.5306 24.3099 26.1128 24.5487C25.5522 24.869 25.3235 25.1956 24.9437 25.7178C24.5434 26.2682 24.4171 26.6447 24.1643 27.2766C23.9856 27.7234 23.8607 27.9722 23.7746 28.4457Z" fill="#B5DCFF" stroke="#308AE4"/>
<path d="M2.33887 21.0384C2.33887 21.0384 2.96819 18.945 3.54137 17.672C4.07938 16.4772 4.29276 15.7201 5.1447 14.7245C6.03537 13.6836 6.75382 13.2858 7.95054 12.6191C9.12632 11.964 11.1572 11.3559 11.1572 11.3559C11.1572 11.3559 12.8585 11.0105 13.963 10.9348C14.9003 10.8706 16.3681 10.9348 16.3681 10.9348" stroke="#308AE4" stroke-width="2"/>
<path d="M8.57471 21.0376C8.57471 21.0376 9.38358 19.3202 10.3067 18.6105C11.0413 18.0458 12.4717 17.6397 12.4717 17.6397C12.4717 17.6397 14.0395 17.217 15.0697 17.1543C15.5761 17.1235 16.3687 17.1543 16.3687 17.1543" stroke="#308AE4" stroke-width="2"/>
<path d="M50.6606 21.0384C50.6606 21.0384 50.2965 19.3983 49.8812 18.4294C49.4077 17.3247 48.3224 15.8204 48.3224 15.8204C48.3224 15.8204 47.245 14.3818 46.3739 13.6462C45.6743 13.0553 45.2391 12.7618 44.4254 12.3417C43.5598 11.8947 42.0872 11.472 42.0872 11.472C42.0872 11.472 41.1465 11.1581 40.5284 11.0371C39.0295 10.7437 35.8521 11.0353 35.8521 11.0353" stroke="#308AE4" stroke-width="2"/>
<path d="M44.0363 20.6526C44.0363 20.6526 43.1882 19.3694 42.4775 18.7015C41.923 18.1804 41.6406 17.773 40.9187 17.5324C40.1968 17.2918 39.7399 17.2429 38.9702 17.1462C37.6112 16.9754 35.4629 17.1462 35.4629 17.1462" stroke="#308AE4" stroke-width="2"/>
<mask id="path-7-inside-1_290_4644" fill="white">
<path fill-rule="evenodd" clip-rule="evenodd" d="M9.35291 20.2656H1.55892V32.736H9.35291V20.2656ZM10.9116 32.737H0V36.634H10.9116V32.737Z"/>
</mask>
<path fill-rule="evenodd" clip-rule="evenodd" d="M9.35291 20.2656H1.55892V32.736H9.35291V20.2656ZM10.9116 32.737H0V36.634H10.9116V32.737Z" fill="#B5DCFF"/>
<path d="M1.55892 20.2656V18.2656H-0.44108V20.2656H1.55892ZM9.35291 20.2656H11.3529V18.2656H9.35291V20.2656ZM1.55892 32.736H-0.44108V34.736H1.55892V32.736ZM9.35291 32.736V34.736H11.3529V32.736H9.35291ZM0 32.737V30.737H-2V32.737H0ZM10.9116 32.737H12.9116V30.737H10.9116V32.737ZM0 36.634H-2V38.634H0V36.634ZM10.9116 36.634V38.634H12.9116V36.634H10.9116ZM1.55892 22.2656H9.35291V18.2656H1.55892V22.2656ZM3.55892 32.736V20.2656H-0.44108V32.736H3.55892ZM9.35291 30.736H1.55892V34.736H9.35291V30.736ZM7.35291 20.2656V32.736H11.3529V20.2656H7.35291ZM0 34.737H10.9116V30.737H0V34.737ZM2 36.634V32.737H-2V36.634H2ZM10.9116 34.634H0V38.634H10.9116V34.634ZM8.91159 32.737V36.634H12.9116V32.737H8.91159Z" fill="#308AE4" mask="url(#path-7-inside-1_290_4644)"/>
<mask id="path-9-inside-2_290_4644" fill="white">
<path fill-rule="evenodd" clip-rule="evenodd" d="M51.4428 20.2656H43.6488V32.736H51.4428V20.2656ZM53.0014 32.737H42.0898V36.634H53.0014V32.737Z"/>
</mask>
<path fill-rule="evenodd" clip-rule="evenodd" d="M51.4428 20.2656H43.6488V32.736H51.4428V20.2656ZM53.0014 32.737H42.0898V36.634H53.0014V32.737Z" fill="#B5DCFF"/>
<path d="M43.6488 20.2656V18.2656H41.6488V20.2656H43.6488ZM51.4428 20.2656H53.4428V18.2656H51.4428V20.2656ZM43.6488 32.736H41.6488V34.736H43.6488V32.736ZM51.4428 32.736V34.736H53.4428V32.736H51.4428ZM42.0898 32.737V30.737H40.0898V32.737H42.0898ZM53.0014 32.737H55.0014V30.737H53.0014V32.737ZM42.0898 36.634H40.0898V38.634H42.0898V36.634ZM53.0014 36.634V38.634H55.0014V36.634H53.0014ZM43.6488 22.2656H51.4428V18.2656H43.6488V22.2656ZM45.6488 32.736V20.2656H41.6488V32.736H45.6488ZM51.4428 30.736H43.6488V34.736H51.4428V30.736ZM49.4428 20.2656V32.736H53.4428V20.2656H49.4428ZM42.0898 34.737H53.0014V30.737H42.0898V34.737ZM44.0898 36.634V32.737H40.0898V36.634H44.0898ZM53.0014 34.634H42.0898V38.634H53.0014V34.634ZM51.0014 32.737V36.634H55.0014V32.737H51.0014Z" fill="#308AE4" mask="url(#path-9-inside-2_290_4644)"/>
<mask id="path-11-inside-3_290_4644" fill="white">
<rect x="16.3687" y="9.35938" width="5.45579" height="9.35279" rx="1.5588"/>
</mask>
<rect x="16.3687" y="9.35938" width="5.45579" height="9.35279" rx="1.5588" fill="#B5DCFF" stroke="#308AE4" stroke-width="4" mask="url(#path-11-inside-3_290_4644)"/>
<mask id="path-12-inside-4_290_4644" fill="white">
<rect x="31.1772" y="9.35938" width="5.45579" height="9.35279" rx="1.5588"/>
</mask>
<rect x="31.1772" y="9.35938" width="5.45579" height="9.35279" rx="1.5588" fill="#B5DCFF" stroke="#308AE4" stroke-width="4" mask="url(#path-12-inside-4_290_4644)"/>
<rect x="22.0454" y="11.9141" width="8.91159" height="5.01459" fill="#B5DCFF" stroke="#308AE4" stroke-width="2"/>
<mask id="path-14-inside-5_290_4644" fill="white">
<path fill-rule="evenodd" clip-rule="evenodd" d="M24.9396 1.55685H21.8226C20.5312 1.55685 19.4844 2.6037 19.4844 3.89505C19.4844 5.1864 20.5312 6.23325 21.8226 6.23325H31.1754C32.4667 6.23325 33.5136 5.1864 33.5136 3.89505C33.5136 2.6037 32.4667 1.55685 31.1754 1.55685H28.0572C28.0566 1.14413 27.8925 0.748434 27.6006 0.456562C27.3083 0.16423 26.9118 0 26.4984 0C26.0849 0 25.6885 0.16423 25.3961 0.456561C25.1043 0.748433 24.9401 1.14413 24.9396 1.55685Z"/>
</mask>
<path fill-rule="evenodd" clip-rule="evenodd" d="M24.9396 1.55685H21.8226C20.5312 1.55685 19.4844 2.6037 19.4844 3.89505C19.4844 5.1864 20.5312 6.23325 21.8226 6.23325H31.1754C32.4667 6.23325 33.5136 5.1864 33.5136 3.89505C33.5136 2.6037 32.4667 1.55685 31.1754 1.55685H28.0572C28.0566 1.14413 27.8925 0.748434 27.6006 0.456562C27.3083 0.16423 26.9118 0 26.4984 0C26.0849 0 25.6885 0.16423 25.3961 0.456561C25.1043 0.748433 24.9401 1.14413 24.9396 1.55685Z" fill="#B5DCFF"/>
<path d="M24.9396 1.55685V3.55685H26.9371L26.9396 1.55935L24.9396 1.55685ZM28.0572 1.55685L26.0572 1.55935L26.0597 3.55685H28.0572V1.55685ZM27.6006 0.456562L29.0148 -0.957652L29.0148 -0.957653L27.6006 0.456562ZM25.3961 0.456561L23.9819 -0.957653L23.9819 -0.957652L25.3961 0.456561ZM21.8226 3.55685H24.9396V-0.44315H21.8226V3.55685ZM21.4844 3.89505C21.4844 3.70827 21.6358 3.55685 21.8226 3.55685V-0.44315C19.4267 -0.44315 17.4844 1.49913 17.4844 3.89505H21.4844ZM21.8226 4.23325C21.6358 4.23325 21.4844 4.08183 21.4844 3.89505H17.4844C17.4844 6.29097 19.4267 8.23325 21.8226 8.23325V4.23325ZM31.1754 4.23325H21.8226V8.23325H31.1754V4.23325ZM31.5136 3.89505C31.5136 4.08183 31.3621 4.23325 31.1754 4.23325V8.23325C33.5713 8.23325 35.5136 6.29097 35.5136 3.89505H31.5136ZM31.1754 3.55685C31.3621 3.55685 31.5136 3.70827 31.5136 3.89505H35.5136C35.5136 1.49913 33.5713 -0.44315 31.1754 -0.44315V3.55685ZM28.0572 3.55685H31.1754V-0.44315H28.0572V3.55685ZM30.0572 1.55435C30.056 0.612102 29.6812 -0.291296 29.0148 -0.957652L26.1864 1.87077C26.1038 1.78816 26.0573 1.67617 26.0572 1.55935L30.0572 1.55435ZM29.0148 -0.957653C28.3474 -1.62506 27.4422 -2 26.4984 -2V2C26.3813 2 26.2691 1.95352 26.1864 1.87078L29.0148 -0.957653ZM26.4984 -2C25.5545 -2 24.6493 -1.62506 23.9819 -0.957653L26.8103 1.87078C26.7276 1.95352 26.6154 2 26.4984 2V-2ZM23.9819 -0.957652C23.3156 -0.291296 22.9407 0.612102 22.9396 1.55435L26.9396 1.55935C26.9394 1.67617 26.8929 1.78816 26.8103 1.87077L23.9819 -0.957652Z" fill="#308AE4" mask="url(#path-14-inside-5_290_4644)"/>
<mask id="path-16-inside-6_290_4644" fill="white">
<path fill-rule="evenodd" clip-rule="evenodd" d="M27.2791 6.23438H25.7203V7.0128H24.9419V10.9098H28.0595V7.0128H27.2791V6.23438Z"/>
</mask>
<path fill-rule="evenodd" clip-rule="evenodd" d="M27.2791 6.23438H25.7203V7.0128H24.9419V10.9098H28.0595V7.0128H27.2791V6.23438Z" fill="#B5DCFF"/>
<path d="M25.7203 6.23438V4.23438H23.7203V6.23438H25.7203ZM27.2791 6.23438H29.2791V4.23438H27.2791V6.23438ZM25.7203 7.0128V9.0128H27.7203V7.0128H25.7203ZM24.9419 7.0128V5.0128H22.9419V7.0128H24.9419ZM24.9419 10.9098H22.9419V12.9098H24.9419V10.9098ZM28.0595 10.9098V12.9098H30.0595V10.9098H28.0595ZM28.0595 7.0128H30.0595V5.0128H28.0595V7.0128ZM27.2791 7.0128H25.2791V9.0128H27.2791V7.0128ZM25.7203 8.23438H27.2791V4.23438H25.7203V8.23438ZM27.7203 7.0128V6.23438H23.7203V7.0128H27.7203ZM24.9419 9.0128H25.7203V5.0128H24.9419V9.0128ZM26.9419 10.9098V7.0128H22.9419V10.9098H26.9419ZM28.0595 8.9098H24.9419V12.9098H28.0595V8.9098ZM26.0595 7.0128V10.9098H30.0595V7.0128H26.0595ZM27.2791 9.0128H28.0595V5.0128H27.2791V9.0128ZM25.2791 6.23438V7.0128H29.2791V6.23438H25.2791Z" fill="#308AE4" mask="url(#path-16-inside-6_290_4644)"/>
</svg>
