<svg width="33" height="33" viewBox="0 0 33 33" fill="none" xmlns="http://www.w3.org/2000/svg">
<path d="M32.6897 16.4108C32.6897 7.61812 25.5057 0.453125 16.6897 0.453125C7.8737 0.453125 0.689697 7.61812 0.689697 16.4108C0.689697 21.0385 2.6897 25.2035 5.8577 28.1237C5.8577 28.1397 5.8577 28.1397 5.8417 28.1556C6.0017 28.3152 6.1937 28.4429 6.3537 28.5865C6.4497 28.6663 6.5297 28.7461 6.6257 28.8099C6.9137 29.0493 7.2337 29.2727 7.5377 29.4961C7.6497 29.5759 7.7457 29.6397 7.8577 29.7195C8.1617 29.9269 8.4817 30.1184 8.8177 30.294C8.9297 30.3578 9.0577 30.4376 9.1697 30.5014C9.4897 30.677 9.8257 30.8365 10.1777 30.9802C10.3057 31.044 10.4337 31.1078 10.5617 31.1557C10.9137 31.2993 11.2657 31.427 11.6177 31.5387C11.7457 31.5865 11.8737 31.6344 12.0017 31.6663C12.3857 31.778 12.7697 31.8738 13.1537 31.9695C13.2657 32.0014 13.3777 32.0334 13.5057 32.0493C13.9537 32.1451 14.4017 32.2089 14.8657 32.2568C14.9297 32.2568 14.9937 32.2727 15.0577 32.2887C15.6017 32.3366 16.1457 32.3685 16.6897 32.3685C17.2337 32.3685 17.7777 32.3366 18.3057 32.2887C18.3697 32.2887 18.4337 32.2727 18.4977 32.2568C18.9617 32.2089 19.4097 32.1451 19.8577 32.0493C19.9697 32.0334 20.0817 31.9855 20.2097 31.9695C20.5937 31.8738 20.9937 31.794 21.3617 31.6663C21.4897 31.6185 21.6177 31.5706 21.7457 31.5387C22.0977 31.411 22.4657 31.2993 22.8017 31.1557C22.9297 31.1078 23.0577 31.044 23.1857 30.9802C23.5217 30.8365 23.8577 30.677 24.1937 30.5014C24.3217 30.4376 24.4337 30.3578 24.5457 30.294C24.8657 30.1025 25.1857 29.9269 25.5057 29.7195C25.6177 29.6557 25.7137 29.5759 25.8257 29.4961C26.1457 29.2727 26.4497 29.0493 26.7377 28.8099C26.8337 28.7301 26.9137 28.6503 27.0097 28.5865C27.1857 28.4429 27.3617 28.2993 27.5217 28.1556C27.5217 28.1397 27.5217 28.1397 27.5057 28.1237C30.6897 25.2035 32.6897 21.0385 32.6897 16.4108ZM24.5937 24.3418C20.2577 21.4375 13.1537 21.4375 8.7857 24.3418C8.0817 24.8045 7.5057 25.3471 7.0257 25.9375C4.5937 23.48 3.0897 20.113 3.0897 16.4108C3.0897 8.92665 9.1857 2.84678 16.6897 2.84678C24.1937 2.84678 30.2897 8.92665 30.2897 16.4108C30.2897 20.113 28.7857 23.48 26.3537 25.9375C25.8897 25.3471 25.2977 24.8045 24.5937 24.3418Z" fill="white"/>
<path d="M16.6897 8.3125C13.3777 8.3125 10.6897 10.9934 10.6897 14.2966C10.6897 17.5361 13.2337 20.1691 16.6097 20.2648H16.7537H16.8657H16.8977C20.1297 20.1531 22.6737 17.5361 22.6897 14.2966C22.6897 10.9934 20.0017 8.3125 16.6897 8.3125Z" fill="white"/>
</svg>
