<svg width="38" height="55" viewBox="0 0 38 55" fill="none" xmlns="http://www.w3.org/2000/svg">
<mask id="path-1-inside-1_290_4661" fill="white">
<path fill-rule="evenodd" clip-rule="evenodd" d="M12.7374 18.2913L10.8067 17.0492L9.74809 18.6946C8.45854 18.1073 7.04977 17.8849 5.7174 18.0728C4.13896 18.2956 2.78856 19.0772 1.92252 20.2602L0.973249 19.6494L-0.00013113 21.1624L13.515 29.8576L14.4883 28.3446L13.4912 27.7031C14.2088 26.4246 14.3604 24.8717 13.9088 23.3429C13.5283 22.0549 12.7442 20.8671 11.6782 19.9377L12.7374 18.2913Z"/>
</mask>
<path fill-rule="evenodd" clip-rule="evenodd" d="M12.7374 18.2913L10.8067 17.0492L9.74809 18.6946C8.45854 18.1073 7.04977 17.8849 5.7174 18.0728C4.13896 18.2956 2.78856 19.0772 1.92252 20.2602L0.973249 19.6494L-0.00013113 21.1624L13.515 29.8576L14.4883 28.3446L13.4912 27.7031C14.2088 26.4246 14.3604 24.8717 13.9088 23.3429C13.5283 22.0549 12.7442 20.8671 11.6782 19.9377L12.7374 18.2913Z" fill="#B5DCFF"/>
<path d="M10.8067 17.0492L11.3478 16.2082L10.5068 15.6671L9.96573 16.5081L10.8067 17.0492ZM12.7374 18.2913L13.5784 18.8324L14.1195 17.9914L13.2785 17.4504L12.7374 18.2913ZM9.74809 18.6946L9.3336 19.6047L10.121 19.9633L10.5891 19.2357L9.74809 18.6946ZM5.7174 18.0728L5.85712 19.063L5.7174 18.0728ZM1.92252 20.2602L1.38146 21.1011L2.17323 21.6106L2.72939 20.8509L1.92252 20.2602ZM0.973249 19.6494L1.51431 18.8085L0.673328 18.2674L0.132267 19.1084L0.973249 19.6494ZM-0.00013113 21.1624L-0.841114 20.6213L-1.38218 21.4623L-0.541193 22.0034L-0.00013113 21.1624ZM13.515 29.8576L12.9739 30.6985L13.8149 31.2396L14.3559 30.3986L13.515 29.8576ZM14.4883 28.3446L15.3293 28.8857L15.8704 28.0447L15.0294 27.5036L14.4883 28.3446ZM13.4912 27.7031L12.6192 27.2137L12.1584 28.0347L12.9501 28.5441L13.4912 27.7031ZM13.9088 23.3429L14.8678 23.0596L14.8678 23.0596L13.9088 23.3429ZM11.6782 19.9377L10.8372 19.3967L10.3696 20.1235L11.0211 20.6915L11.6782 19.9377ZM10.2657 17.8902L12.1964 19.1323L13.2785 17.4504L11.3478 16.2082L10.2657 17.8902ZM10.5891 19.2357L11.6477 17.5902L9.96573 16.5081L8.90711 18.1535L10.5891 19.2357ZM10.1626 17.7846C8.71303 17.1243 7.11265 16.8661 5.57769 17.0827L5.85712 19.063C6.98689 18.9036 8.20405 19.0902 9.3336 19.6047L10.1626 17.7846ZM5.57769 17.0827C3.75566 17.3397 2.15462 18.2503 1.11564 19.6694L2.72939 20.8509C3.42251 19.9041 4.52227 19.2514 5.85712 19.063L5.57769 17.0827ZM2.46358 19.4192L1.51431 18.8085L0.432187 20.4904L1.38146 21.1011L2.46358 19.4192ZM0.132267 19.1084L-0.841114 20.6213L0.840852 21.7034L1.81423 20.1905L0.132267 19.1084ZM-0.541193 22.0034L12.9739 30.6985L14.056 29.0166L0.540931 20.3214L-0.541193 22.0034ZM14.3559 30.3986L15.3293 28.8857L13.6474 27.8036L12.674 29.3165L14.3559 30.3986ZM15.0294 27.5036L14.0323 26.8621L12.9501 28.5441L13.9473 29.1856L15.0294 27.5036ZM14.3632 28.1925C15.2241 26.6588 15.3891 24.8243 14.8678 23.0596L12.9497 23.6262C13.3316 24.9191 13.1934 26.1905 12.6192 27.2137L14.3632 28.1925ZM14.8678 23.0596C14.4295 21.5757 13.5336 20.2286 12.3353 19.184L11.0211 20.6915C11.9547 21.5055 12.6271 22.534 12.9497 23.6262L14.8678 23.0596ZM11.8965 17.7503L10.8372 19.3967L12.5192 20.4788L13.5784 18.8324L11.8965 17.7503Z" fill="#519EEA" mask="url(#path-1-inside-1_290_4661)"/>
<rect x="19.0792" y="5.1129" width="1.2958" height="12.7612" transform="rotate(32.756 19.0792 5.1129)" fill="#B5DCFF" stroke="#519EEA"/>
<path fill-rule="evenodd" clip-rule="evenodd" d="M1.98828 27.6484H7.15383V45.391C7.15427 45.4108 7.1545 45.4306 7.1545 45.4505L7.1547 46.6773L7.1549 48.0333L7.15492 48.0494C7.24202 48.0866 7.31637 48.1227 7.37473 48.1524C7.41709 48.1739 7.45833 48.1959 7.49811 48.2179C7.60156 48.2456 7.716 48.2766 7.84221 48.3113C8.03117 48.3631 8.30198 48.4356 8.58181 48.497C8.89196 48.5651 9.0848 48.5904 9.15039 48.5932C9.6968 48.6163 9.9331 48.6098 10.1002 48.5777C10.162 48.5658 10.1881 48.5541 10.197 48.5498C10.2036 48.5466 10.226 48.5357 10.2678 48.4969C10.3218 48.4467 10.3641 48.4073 10.4019 48.3716C10.4032 48.3458 10.4043 48.3154 10.4051 48.2798C10.4066 48.2058 10.4065 48.1227 10.4056 48.0141L10.4048 47.9366C10.4039 47.8494 10.4028 47.7445 10.4028 47.6455C10.4028 47.1117 10.3839 46.5777 10.3627 45.9915L10.3619 45.9685L10.3619 45.9684C10.3415 45.4033 10.3193 44.7872 10.3193 44.158C10.3193 43.5907 10.398 43.1254 10.5359 42.6811C10.5903 42.5059 10.6507 42.3458 10.687 42.2495L10.6923 42.2355C10.7334 42.1266 10.7588 42.0587 10.7845 41.9811L10.9006 41.6309L11.11 41.3272C11.3027 41.0478 11.4434 40.8432 11.5439 40.6965C11.5602 40.6712 11.5762 40.6468 11.5905 40.6253C11.6568 40.5249 11.7387 40.4058 11.7836 40.342L11.8071 40.3088L11.8076 40.3081C11.8126 40.3011 11.8339 40.2714 11.8601 40.2372C11.8682 40.2266 11.8833 40.2069 11.9029 40.1827C11.9129 40.1703 11.9279 40.152 11.9465 40.1301C11.963 40.1107 11.995 40.0736 12.0373 40.0289C12.0574 40.008 12.105 39.96 12.1328 39.9332C12.172 39.8966 12.2726 39.8094 12.3349 39.7598C12.3571 39.7435 12.389 39.7221 12.4276 39.6976C12.4862 39.6379 12.5477 39.577 12.6121 39.5151L12.8155 39.3198L13.0563 39.173C13.7342 38.7598 14.3774 38.4199 15.0705 38.2162C15.5409 38.078 15.9662 38.0232 16.3379 38.0016V37.9776H37.0001V43.1432H17.1473C17.0712 43.1499 16.9941 43.1534 16.9161 43.1534C16.563 43.1534 16.531 43.1701 16.5274 43.172L16.5271 43.1722C16.4899 43.1831 16.356 43.2282 16.0055 43.4292C15.9499 43.4898 15.8905 43.5576 15.8101 43.6493C15.773 43.6916 15.7315 43.739 15.6837 43.7932L15.5548 43.9806L15.5309 44.0442L15.5258 44.0577C15.5058 44.1108 15.4931 44.1449 15.4848 44.1676C15.485 44.6937 15.5039 45.2222 15.5249 45.8054L15.5255 45.8223L15.5255 45.8223C15.546 46.3896 15.5683 47.0098 15.5683 47.6455C15.5683 47.6805 15.5691 47.7267 15.5701 47.7823V47.7823C15.576 48.1318 15.5884 48.8544 15.452 49.5277C15.3198 50.1804 15.0804 50.7615 14.6969 51.2947C14.3919 51.7188 14.0274 52.0558 13.8227 52.2451L13.7824 52.2824C12.0524 53.8885 10.0411 53.8019 9.00182 53.7571L8.9326 53.7542C8.20471 53.7234 7.33116 53.5186 6.81999 53.3855C6.78573 53.3865 6.75481 53.3868 6.72783 53.3866C6.64425 53.3862 6.57512 53.3818 6.52796 53.378C6.47891 53.374 6.43718 53.3692 6.40557 53.3651C6.34394 53.3572 6.2935 53.3485 6.26149 53.3427L5.63283 53.2277L5.41003 53.0526C5.35396 53.0309 5.28846 53.005 5.22581 52.9785C5.18515 52.9613 5.1003 52.925 5.00504 52.8766C4.99144 52.8697 4.97234 52.8599 4.94895 52.8474C4.50249 52.723 4.09706 52.5031 3.74474 52.1934C3.43541 51.9215 3.21884 51.6204 3.12125 51.4846C3.067 51.4091 2.98098 51.2852 2.89888 51.1669L2.89877 51.1667C2.84422 51.0881 2.79139 51.012 2.75077 50.9542L2.64331 50.8015L2.55895 50.6349C2.37723 50.276 2.20139 49.8623 2.097 49.3446C2.02349 48.9801 1.99937 48.6293 1.99216 48.3106H1.98828V27.6484Z" fill="#B5DCFF"/>
<path d="M7.15383 27.6484H7.65383V27.1484H7.15383V27.6484ZM1.98828 27.6484V27.1484H1.48828V27.6484H1.98828ZM7.15383 45.391H6.6537L6.65395 45.4023L7.15383 45.391ZM7.1545 45.4505H6.6545V45.4506L7.1545 45.4505ZM7.1547 46.6773L7.6547 46.6772V46.6772L7.1547 46.6773ZM7.1549 48.0333L6.6549 48.0334V48.0337L7.1549 48.0333ZM7.15492 48.0494L6.65492 48.0498L6.65521 48.3795L6.95839 48.5091L7.15492 48.0494ZM7.37473 48.1524L7.60156 47.7068H7.60156L7.37473 48.1524ZM7.49811 48.2179L7.25634 48.6555L7.30978 48.6851L7.36876 48.7009L7.49811 48.2179ZM7.84221 48.3113L7.97448 47.8291H7.97448L7.84221 48.3113ZM8.58181 48.497L8.68903 48.0086L8.58181 48.497ZM9.15039 48.5932L9.17147 48.0937H9.17147L9.15039 48.5932ZM10.1002 48.5777L10.0058 48.0867H10.0058L10.1002 48.5777ZM10.197 48.5498L10.4152 48.9996L10.4153 48.9996L10.197 48.5498ZM10.2678 48.4969L9.92759 48.1304L9.92759 48.1304L10.2678 48.4969ZM10.4019 48.3716L10.7454 48.735L10.8911 48.5972L10.9012 48.3969L10.4019 48.3716ZM10.4051 48.2798L10.905 48.2904V48.2904L10.4051 48.2798ZM10.4056 48.0141L10.9055 48.0096L10.9055 48.0091L10.4056 48.0141ZM10.4048 47.9366L10.9048 47.9316L10.9048 47.9314L10.4048 47.9366ZM10.3627 45.9915L10.8624 45.9735V45.9735L10.3627 45.9915ZM10.3619 45.9685L10.8616 45.9504L10.8614 45.9458L10.3619 45.9685ZM10.3619 45.9684L9.86218 45.9864L9.86239 45.9911L10.3619 45.9684ZM10.5359 42.6811L11.0134 42.8294L10.5359 42.6811ZM10.687 42.2495L11.1548 42.426L11.1549 42.4259L10.687 42.2495ZM10.6923 42.2355L11.1601 42.412L11.1602 42.4119L10.6923 42.2355ZM10.7845 41.9811L10.3099 41.8238L10.3099 41.8238L10.7845 41.9811ZM10.9006 41.6309L10.489 41.347L10.4484 41.4058L10.4259 41.4736L10.9006 41.6309ZM11.11 41.3272L11.5216 41.6111L11.5216 41.6111L11.11 41.3272ZM11.5439 40.6965L11.9564 40.9792L11.9604 40.9732L11.9643 40.9672L11.5439 40.6965ZM11.5905 40.6253L12.0075 40.9011V40.9011L11.5905 40.6253ZM11.7836 40.342L11.3759 40.0525L11.3747 40.0542L11.7836 40.342ZM11.8071 40.3088L11.4008 40.0174L11.3994 40.0194L11.8071 40.3088ZM11.8076 40.3081L12.2139 40.5995L12.214 40.5993L11.8076 40.3081ZM11.8601 40.2372L11.4629 39.9334L11.4629 39.9335L11.8601 40.2372ZM11.9029 40.1827L12.292 40.4967L12.292 40.4967L11.9029 40.1827ZM11.9465 40.1301L11.5658 39.806L11.5658 39.806L11.9465 40.1301ZM12.0373 40.0289L11.6761 39.6832L11.6742 39.6852L12.0373 40.0289ZM12.1328 39.9332L11.7919 39.5673L11.7855 39.5735L12.1328 39.9332ZM12.3349 39.7598L12.0392 39.3566L12.0311 39.3626L12.0232 39.3688L12.3349 39.7598ZM12.4276 39.6976L12.6962 40.1193L12.7442 40.0887L12.7841 40.0481L12.4276 39.6976ZM12.6121 39.5151L12.2658 39.1545L12.2658 39.1545L12.6121 39.5151ZM12.8155 39.3198L12.5553 38.8929L12.5086 38.9213L12.4693 38.9591L12.8155 39.3198ZM13.0563 39.173L12.7961 38.7461H12.7961L13.0563 39.173ZM15.0705 38.2162L15.2115 38.6959L15.0705 38.2162ZM16.3379 38.0016L16.3669 38.5008L16.8379 38.4734V38.0016H16.3379ZM16.3379 37.9776V37.4776H15.8379V37.9776H16.3379ZM37.0001 37.9776H37.5001V37.4776H37.0001V37.9776ZM37.0001 43.1432V43.6432H37.5001V43.1432H37.0001ZM17.1473 43.1432V42.6432H17.1252L17.1032 42.6451L17.1473 43.1432ZM16.5274 43.172L16.7417 43.6238L16.7505 43.6196L16.7591 43.6151L16.5274 43.172ZM16.5271 43.1722L16.6681 43.6519L16.7058 43.6408L16.7414 43.6239L16.5271 43.1722ZM16.0055 43.4292L15.7568 42.9955L15.6896 43.034L15.6372 43.091L16.0055 43.4292ZM15.8101 43.6493L16.1861 43.9788L16.1861 43.9788L15.8101 43.6493ZM15.6837 43.7932L15.3086 43.4627L15.2887 43.4851L15.2718 43.5098L15.6837 43.7932ZM15.5548 43.9806L15.1428 43.6972L15.1083 43.7475L15.0868 43.8045L15.5548 43.9806ZM15.5309 44.0442L15.9987 44.2206L15.9988 44.2203L15.5309 44.0442ZM15.5258 44.0577L15.0579 43.8813L15.0579 43.8813L15.5258 44.0577ZM15.4848 44.1676L15.015 43.9965L14.9848 44.0795L14.9848 44.1678L15.4848 44.1676ZM15.5249 45.8054L15.0252 45.8234V45.8234L15.5249 45.8054ZM15.5255 45.8223L15.0258 45.8403L15.0259 45.8431L15.5255 45.8223ZM15.5255 45.8223L16.0252 45.8043L16.0251 45.8015L15.5255 45.8223ZM15.5701 47.7823H16.0702L16.07 47.7738L15.5701 47.7823ZM15.5701 47.7823H15.07L15.0702 47.7909L15.5701 47.7823ZM15.452 49.5277L14.9619 49.4285L15.452 49.5277ZM14.6969 51.2947L14.291 51.0027H14.291L14.6969 51.2947ZM13.8227 52.2451L13.4833 51.878L13.483 51.8782L13.8227 52.2451ZM13.7824 52.2824L13.4427 51.9155L13.4422 51.916L13.7824 52.2824ZM9.00182 53.7571L9.02334 53.2576L9.02318 53.2576L9.00182 53.7571ZM8.9326 53.7542L8.95396 53.2546L8.95368 53.2546L8.9326 53.7542ZM6.81999 53.3855L6.94602 52.9016L6.87651 52.8835L6.80471 52.8857L6.81999 53.3855ZM6.72783 53.3866L6.72538 53.8866H6.72539L6.72783 53.3866ZM6.52796 53.378L6.48728 53.8763H6.48729L6.52796 53.378ZM6.40557 53.3651L6.46931 52.8692L6.4693 52.8692L6.40557 53.3651ZM6.26149 53.3427L6.17154 53.8345H6.17154L6.26149 53.3427ZM5.63283 53.2277L5.32391 53.6209L5.42119 53.6973L5.54289 53.7196L5.63283 53.2277ZM5.41003 53.0526L5.71895 52.6595L5.66025 52.6134L5.59064 52.5864L5.41003 53.0526ZM5.22581 52.9785L5.42041 52.5179L5.4204 52.5179L5.22581 52.9785ZM5.00504 52.8766L4.77856 53.3224L4.77859 53.3224L5.00504 52.8766ZM4.94895 52.8474L5.18517 52.4067L5.13639 52.3805L5.08308 52.3657L4.94895 52.8474ZM3.74474 52.1934L3.41465 52.5689H3.41465L3.74474 52.1934ZM3.12125 51.4846L2.71523 51.7764L2.71523 51.7764L3.12125 51.4846ZM2.89888 51.1669L2.48775 51.4514L2.48811 51.4519L2.89888 51.1669ZM2.89877 51.1667L3.3099 50.8822L3.30954 50.8816L2.89877 51.1667ZM2.75077 50.9542L2.34182 51.2419L2.34182 51.2419L2.75077 50.9542ZM2.64331 50.8015L2.19723 51.0274L2.21356 51.0596L2.23437 51.0892L2.64331 50.8015ZM2.55895 50.6349L3.00503 50.409L3.00503 50.409L2.55895 50.6349ZM2.097 49.3446L1.60687 49.4435L1.60687 49.4435L2.097 49.3446ZM1.99216 48.3106L2.49203 48.2993L2.48097 47.8106H1.99216V48.3106ZM1.98828 48.3106H1.48828V48.8106H1.98828V48.3106ZM7.15383 27.1484H1.98828V28.1484H7.15383V27.1484ZM7.65383 45.391V27.6484H6.65383V45.391H7.65383ZM7.6545 45.4505C7.6545 45.4269 7.65423 45.4032 7.6537 45.3797L6.65395 45.4023C6.65432 45.4183 6.6545 45.4344 6.6545 45.4505H7.6545ZM7.6547 46.6772L7.6545 45.4504L6.6545 45.4506L6.6547 46.6774L7.6547 46.6772ZM7.6549 48.0332L7.6547 46.6772L6.6547 46.6774L6.6549 48.0334L7.6549 48.0332ZM7.65492 48.0489L7.6549 48.0329L6.6549 48.0337L6.65492 48.0498L7.65492 48.0489ZM7.60156 47.7068C7.53595 47.6734 7.45125 47.6323 7.35144 47.5896L6.95839 48.5091C7.03279 48.5409 7.09678 48.5719 7.1479 48.598L7.60156 47.7068ZM7.73987 47.7802C7.69561 47.7558 7.64938 47.7311 7.60156 47.7068L7.1479 48.598C7.1848 48.6167 7.22104 48.6361 7.25634 48.6555L7.73987 47.7802ZM7.97448 47.8291C7.84748 47.7942 7.73206 47.7629 7.62745 47.7349L7.36876 48.7009C7.47107 48.7283 7.58451 48.759 7.70994 48.7935L7.97448 47.8291ZM8.68903 48.0086C8.42212 47.95 8.16129 47.8803 7.97448 47.8291L7.70994 48.7935C7.90104 48.8459 8.18185 48.9211 8.47458 48.9854L8.68903 48.0086ZM9.17147 48.0937C9.17317 48.0937 9.16294 48.0932 9.13665 48.0901C9.11224 48.0872 9.07896 48.0826 9.03665 48.0759C8.95211 48.0624 8.83588 48.0409 8.68903 48.0086L8.47458 48.9854C8.79081 49.0548 9.01849 49.0881 9.12931 49.0928L9.17147 48.0937ZM10.0058 48.0867C9.90454 48.1061 9.72512 48.117 9.17147 48.0937L9.12931 49.0928C9.66849 49.1155 9.96166 49.1135 10.1946 49.0687L10.0058 48.0867ZM9.97875 48.0999C9.9844 48.0972 9.99141 48.094 9.99903 48.0909C10.0061 48.088 10.0116 48.0861 10.0151 48.085C10.0218 48.0828 10.0198 48.084 10.0058 48.0867L10.1946 49.0687C10.2931 49.0498 10.3617 49.0256 10.4152 48.9996L9.97875 48.0999ZM9.92759 48.1304C9.92199 48.1356 9.92504 48.1321 9.9365 48.1243C9.94239 48.1202 9.94988 48.1155 9.95891 48.1104C9.96339 48.1078 9.96772 48.1055 9.97178 48.1034C9.97577 48.1014 9.97894 48.0998 9.97871 48.1L10.4153 48.9996C10.467 48.9745 10.5303 48.9354 10.608 48.8633L9.92759 48.1304ZM10.0584 48.0083C10.0225 48.0422 9.98183 48.0801 9.92759 48.1304L10.608 48.8633C10.6618 48.8133 10.7057 48.7725 10.7454 48.735L10.0584 48.0083ZM9.90518 48.2692C9.90452 48.3004 9.90356 48.3259 9.90252 48.3464L10.9012 48.3969C10.9028 48.3657 10.9041 48.3304 10.905 48.2904L9.90518 48.2692ZM9.90558 48.0185C9.90655 48.1261 9.90659 48.203 9.90518 48.2692L10.905 48.2904C10.9067 48.2086 10.9065 48.1194 10.9055 48.0096L9.90558 48.0185ZM9.90482 47.9416L9.90559 48.019L10.9055 48.0091L10.9048 47.9316L9.90482 47.9416ZM9.9028 47.6455C9.9028 47.7476 9.90392 47.8551 9.90482 47.9418L10.9048 47.9314C10.9039 47.8438 10.9028 47.7415 10.9028 47.6455H9.9028ZM9.86304 46.0096C9.88423 46.5971 9.9028 47.1222 9.9028 47.6455H10.9028C10.9028 47.1012 10.8835 46.5582 10.8624 45.9735L9.86304 46.0096ZM9.86221 45.9865L9.86304 46.0096L10.8624 45.9735L10.8616 45.9504L9.86221 45.9865ZM9.86239 45.9911L9.8624 45.9912L10.8614 45.9458L10.8614 45.9457L9.86239 45.9911ZM9.81927 44.158C9.81927 44.7976 9.84186 45.4225 9.8622 45.9864L10.8616 45.9504C10.8411 45.3841 10.8193 44.7768 10.8193 44.158H9.81927ZM10.0584 42.5329C9.9056 43.0249 9.81927 43.5402 9.81927 44.158H10.8193C10.8193 43.6412 10.8903 43.2259 11.0134 42.8294L10.0584 42.5329ZM10.2192 42.0729C10.1829 42.1692 10.1177 42.3418 10.0584 42.5329L11.0134 42.8294C11.0629 42.6699 11.1185 42.5223 11.1548 42.426L10.2192 42.0729ZM10.2245 42.059L10.2192 42.073L11.1549 42.4259L11.1601 42.412L10.2245 42.059ZM10.3099 41.8238C10.2878 41.8903 10.2659 41.9491 10.2245 42.0591L11.1602 42.4119C11.2008 42.304 11.2297 42.227 11.2591 42.1384L10.3099 41.8238ZM10.4259 41.4736L10.3099 41.8238L11.2591 42.1384L11.3752 41.7882L10.4259 41.4736ZM10.6984 41.0433L10.489 41.347L11.3122 41.9148L11.5216 41.6111L10.6984 41.0433ZM11.1315 40.4138C11.0313 40.56 10.8909 40.7642 10.6984 41.0433L11.5216 41.6111C11.7145 41.3315 11.8555 41.1264 11.9564 40.9792L11.1315 40.4138ZM11.1734 40.3494C11.1584 40.3722 11.1413 40.3983 11.1235 40.4258L11.9643 40.9672C11.9792 40.9441 11.994 40.9215 12.0075 40.9011L11.1734 40.3494ZM11.3747 40.0542C11.3272 40.1217 11.2427 40.2448 11.1734 40.3494L12.0075 40.9011C12.071 40.805 12.1501 40.6899 12.1925 40.6297L11.3747 40.0542ZM11.3994 40.0194L11.3759 40.0525L12.1913 40.6314L12.2148 40.5983L11.3994 40.0194ZM11.4013 40.0167L11.4008 40.0174L12.2134 40.6002L12.2139 40.5995L11.4013 40.0167ZM11.4629 39.9335C11.432 39.9739 11.4071 40.0086 11.4012 40.0168L12.214 40.5993C12.2181 40.5936 12.2359 40.5689 12.2573 40.5408L11.4629 39.9335ZM11.5138 39.8687C11.4905 39.8975 11.4725 39.9209 11.4629 39.9334L12.2573 40.5409C12.2638 40.5323 12.2761 40.5163 12.292 40.4967L11.5138 39.8687ZM11.5658 39.806C11.5436 39.8321 11.5257 39.8539 11.5138 39.8687L12.292 40.4967C12.3 40.4867 12.3121 40.4719 12.3272 40.4542L11.5658 39.806ZM11.6742 39.6852C11.6237 39.7386 11.5856 39.7828 11.5658 39.806L12.3272 40.4543C12.3405 40.4386 12.3663 40.4087 12.4005 40.3726L11.6742 39.6852ZM11.7855 39.5735C11.7531 39.6048 11.7008 39.6574 11.6761 39.6832L12.3986 40.3746C12.4139 40.3586 12.457 40.3152 12.4802 40.2928L11.7855 39.5735ZM12.0232 39.3688C11.9514 39.4261 11.841 39.5217 11.7919 39.5674L12.4737 40.2989C12.5031 40.2715 12.5939 40.1927 12.6465 40.1508L12.0232 39.3688ZM12.1589 39.2758C12.1165 39.3028 12.0742 39.3309 12.0392 39.3566L12.6306 40.163C12.64 40.1561 12.6615 40.1413 12.6962 40.1193L12.1589 39.2758ZM12.2658 39.1545C12.1977 39.2198 12.1328 39.2842 12.071 39.347L12.7841 40.0481C12.8396 39.9916 12.8977 39.9341 12.9584 39.8758L12.2658 39.1545ZM12.4693 38.9591L12.2658 39.1545L12.9584 39.8758L13.1618 39.6805L12.4693 38.9591ZM12.7961 38.7461L12.5553 38.8929L13.0758 39.7467L13.3166 39.5999L12.7961 38.7461ZM14.9295 37.7365C14.1739 37.9586 13.4868 38.325 12.7961 38.7461L13.3166 39.5999C13.9816 39.1945 14.5809 38.8813 15.2115 38.6959L14.9295 37.7365ZM16.3089 37.5025C15.9093 37.5256 15.4448 37.5851 14.9295 37.7365L15.2115 38.6959C15.6369 38.5709 16.0232 38.5207 16.3669 38.5008L16.3089 37.5025ZM15.8379 37.9776V38.0016H16.8379V37.9776H15.8379ZM37.0001 37.4776H16.3379V38.4776H37.0001V37.4776ZM37.5001 43.1432V37.9776H36.5001V43.1432H37.5001ZM17.1473 43.6432H37.0001V42.6432H17.1473V43.6432ZM16.9161 43.6534C17.0088 43.6534 17.1007 43.6493 17.1915 43.6412L17.1032 42.6451C17.0417 42.6506 16.9793 42.6534 16.9161 42.6534V43.6534ZM16.7591 43.6151C16.7592 43.615 16.7577 43.6158 16.7558 43.6168C16.7538 43.6178 16.7512 43.6191 16.7482 43.6206C16.7421 43.6236 16.7354 43.6267 16.7283 43.6299C16.714 43.6361 16.7008 43.641 16.6891 43.6449C16.6667 43.6524 16.649 43.6564 16.6396 43.6583C16.622 43.6619 16.6161 43.6616 16.6326 43.6602C16.6646 43.6575 16.7448 43.6534 16.9161 43.6534V42.6534C16.7344 42.6534 16.622 42.6576 16.5488 42.6638C16.497 42.6681 16.3959 42.6765 16.2957 42.7289L16.7591 43.6151ZM16.7414 43.6239L16.7417 43.6238L16.3131 42.7203L16.3128 42.7204L16.7414 43.6239ZM16.2543 43.8629C16.5894 43.6707 16.6847 43.647 16.6681 43.6519L16.3861 42.6925C16.2951 42.7192 16.1225 42.7857 15.7568 42.9955L16.2543 43.8629ZM16.1861 43.9788C16.2677 43.8858 16.3229 43.8229 16.3738 43.7674L15.6372 43.091C15.5768 43.1568 15.5133 43.2293 15.4341 43.3197L16.1861 43.9788ZM16.0589 44.1238C16.1071 44.069 16.1491 44.0211 16.1861 43.9788L15.4341 43.3197C15.397 43.362 15.3558 43.409 15.3086 43.4627L16.0589 44.1238ZM15.9668 44.264L16.0957 44.0766L15.2718 43.5098L15.1428 43.6972L15.9668 44.264ZM15.9988 44.2203L16.0228 44.1567L15.0868 43.8045L15.0629 43.8681L15.9988 44.2203ZM15.9936 44.2341L15.9987 44.2206L15.063 43.8678L15.0579 43.8813L15.9936 44.2341ZM15.9546 44.3387C15.962 44.3186 15.9739 44.2865 15.9936 44.2341L15.0579 43.8813C15.0377 43.9351 15.0242 43.9712 15.015 43.9965L15.9546 44.3387ZM16.0246 45.7874C16.0035 45.2027 15.985 44.683 15.9848 44.1674L14.9848 44.1678C14.9851 44.7043 15.0043 45.2418 15.0252 45.8234L16.0246 45.7874ZM16.0252 45.8042L16.0246 45.7873L15.0252 45.8234L15.0258 45.8403L16.0252 45.8042ZM16.0251 45.8015L16.0251 45.8015L15.0259 45.8431L15.0259 45.8432L16.0251 45.8015ZM16.0683 47.6455C16.0683 46.9994 16.0456 46.3705 16.0252 45.8043L15.0258 45.8404C15.0463 46.4088 15.0683 47.0202 15.0683 47.6455H16.0683ZM16.07 47.7738C16.069 47.7164 16.0683 47.6752 16.0683 47.6455H15.0683C15.0683 47.6858 15.0692 47.737 15.0702 47.7908L16.07 47.7738ZM16.0701 47.7823V47.7823H15.0701V47.7823H16.0701ZM15.942 49.627C16.0906 48.8934 16.0759 48.1196 16.07 47.7738L15.0702 47.7909C15.0762 48.1439 15.0861 48.8154 14.9619 49.4285L15.942 49.627ZM15.1029 51.5866C15.5319 50.9899 15.7973 50.3415 15.942 49.627L14.9619 49.4285C14.8423 50.0192 14.6288 50.5331 14.291 51.0027L15.1029 51.5866ZM14.1622 52.6122C14.3665 52.4233 14.7653 52.056 15.1029 51.5866L14.291 51.0027C14.0186 51.3815 13.6884 51.6883 13.4833 51.878L14.1622 52.6122ZM14.122 52.6493L14.1624 52.612L13.483 51.8782L13.4427 51.9155L14.122 52.6493ZM8.98031 54.2567C10.0248 54.3016 12.2295 54.4064 14.1226 52.6489L13.4422 51.916C11.8754 53.3706 10.0574 53.3021 9.02334 53.2576L8.98031 54.2567ZM8.91124 54.2537L8.98046 54.2567L9.02318 53.2576L8.95396 53.2546L8.91124 54.2537ZM6.69396 53.8693C7.20751 54.0031 8.1259 54.2206 8.91151 54.2537L8.95368 53.2546C8.28353 53.2263 7.45481 53.0341 6.94602 52.9016L6.69396 53.8693ZM6.72539 53.8866C6.75753 53.8868 6.7944 53.8865 6.83527 53.8852L6.80471 52.8857C6.77706 52.8865 6.7521 52.8867 6.73027 52.8866L6.72539 53.8866ZM6.48729 53.8763C6.54344 53.8809 6.62579 53.8861 6.72538 53.8866L6.73028 52.8866C6.66272 52.8863 6.6068 52.8828 6.56863 52.8796L6.48729 53.8763ZM6.34183 53.861C6.37935 53.8659 6.42894 53.8716 6.48728 53.8763L6.56863 52.8796C6.52887 52.8764 6.49501 52.8725 6.46931 52.8692L6.34183 53.861ZM6.17154 53.8345C6.20913 53.8414 6.26877 53.8517 6.34184 53.861L6.4693 52.8692C6.41911 52.8628 6.37786 52.8557 6.35143 52.8508L6.17154 53.8345ZM5.54289 53.7196L6.17154 53.8345L6.35143 52.8508L5.72277 52.7359L5.54289 53.7196ZM5.1011 53.4458L5.32391 53.6209L5.94175 52.8346L5.71895 52.6595L5.1011 53.4458ZM5.03121 53.4391C5.10042 53.4683 5.17113 53.4963 5.22942 53.5189L5.59064 52.5864C5.5368 52.5655 5.4765 52.5416 5.42041 52.5179L5.03121 53.4391ZM4.77859 53.3224C4.88943 53.3787 4.98686 53.4203 5.03121 53.4391L5.4204 52.5179C5.38344 52.5023 5.31117 52.4713 5.2315 52.4308L4.77859 53.3224ZM4.71273 53.288C4.74045 53.3029 4.76303 53.3145 4.77856 53.3224L5.23153 52.4308C5.21984 52.4249 5.20424 52.4169 5.18517 52.4067L4.71273 53.288ZM3.41465 52.5689C3.82291 52.9278 4.29518 53.1843 4.81482 53.329L5.08308 52.3657C4.70981 52.2617 4.37121 52.0783 4.07484 51.8178L3.41465 52.5689ZM2.71523 51.7764C2.81509 51.9153 3.05949 52.2567 3.41465 52.5689L4.07484 51.8178C3.81134 51.5862 3.62259 51.3254 3.52727 51.1928L2.71523 51.7764ZM2.48811 51.4519C2.56907 51.5686 2.65796 51.6967 2.71523 51.7764L3.52727 51.1928C3.47603 51.1215 3.3929 51.0017 3.30964 50.8818L2.48811 51.4519ZM2.48764 51.4513L2.48775 51.4514L3.31001 50.8823L3.3099 50.8822L2.48764 51.4513ZM2.34182 51.2419C2.38133 51.2981 2.43311 51.3727 2.48801 51.4518L3.30954 50.8816C3.25532 50.8035 3.20146 50.7259 3.15971 50.6665L2.34182 51.2419ZM2.23437 51.0892L2.34182 51.2419L3.15971 50.6665L3.05226 50.5138L2.23437 51.0892ZM2.11287 50.8607L2.19723 51.0274L3.08939 50.5756L3.00503 50.409L2.11287 50.8607ZM1.60687 49.4435C1.7231 50.0198 1.91887 50.4776 2.11287 50.8607L3.00503 50.409C2.8356 50.0744 2.67968 49.7047 2.58713 49.2458L1.60687 49.4435ZM1.49229 48.3219C1.49987 48.6567 1.52541 49.0395 1.60687 49.4435L2.58713 49.2458C2.52157 48.9207 2.49888 48.6018 2.49203 48.2993L1.49229 48.3219ZM1.98828 48.8106H1.99216V47.8106H1.98828V48.8106ZM1.48828 27.6484V48.3106H2.48828V27.6484H1.48828Z" fill="#519EEA"/>
</svg>
