<svg width="27" height="28" viewBox="0 0 27 28" fill="none" xmlns="http://www.w3.org/2000/svg">
<path d="M26 13.5712C26.0047 15.4043 25.5764 17.2127 24.75 18.849C23.77 20.8097 22.2635 22.4589 20.3992 23.6119C18.5349 24.7648 16.3864 25.3759 14.1944 25.3767C12.3613 25.3815 10.5529 24.9532 8.91665 24.1267L1 26.7656L3.63888 18.849C2.8124 17.2127 2.38411 15.4043 2.38889 13.5712C2.38973 11.3792 3.00085 9.23072 4.15377 7.36642C5.3067 5.50212 6.9559 3.99562 8.91665 3.01566C10.5529 2.18918 12.3613 1.76089 14.1944 1.76566H14.8889C17.7838 1.92538 20.5181 3.14728 22.5682 5.19741C24.6183 7.24754 25.8402 9.98184 26 12.8768V13.5712Z" stroke="black" stroke-width="2" stroke-linecap="round" stroke-linejoin="round"/>
</svg>
