<svg width="253" height="309" viewBox="0 0 253 309" fill="none" xmlns="http://www.w3.org/2000/svg">
<path d="M117.944 107.581C167.367 115.076 117.656 195.541 193.861 210.64C186.366 260.063 111.513 324.564 90.8017 286.557C68.2095 227.756 7.38982 232.921 14.8851 183.498C22.3803 134.075 55.4303 98.1006 117.944 107.581Z" fill="#E9F4FF"/>
<path d="M168.507 209.982C122.336 229.141 123.239 134.564 50.2162 161.074C31.0566 114.904 61.7339 20.978 99.1236 42.7841C148.882 81.4114 198.254 45.5211 217.414 91.6915C236.574 137.862 226.907 185.747 168.507 209.982Z" fill="#B5DCFF"/>
<path d="M194.97 190.504L175.971 192.489L171.881 211.845C171.881 211.845 162.332 199.934 158.838 194.266C155.96 189.64 151.294 185.203 143.721 185.203H113.624C111.311 185.203 109.02 185.66 106.883 186.547C104.747 187.434 102.806 188.734 101.173 190.373C99.5396 192.012 98.246 193.957 97.366 196.096C96.4861 198.236 96.0372 200.528 96.045 202.842V256.344H156.525V228.442C156.525 228.442 167.146 242.993 176.705 241.088C197.501 238.179 196.091 201.105 194.97 190.504Z" fill="#F56132"/>
<path d="M122.856 178.703H135.859V186.187C135.859 187.651 135.278 189.055 134.243 190.09C133.208 191.125 131.804 191.706 130.34 191.706H128.355C126.891 191.706 125.487 191.125 124.452 190.09C123.417 189.055 122.836 187.651 122.836 186.187V178.703H122.856Z" fill="#FFBB9C"/>
<path d="M83.6371 144.939C83.0018 144.939 80.2126 129.286 79.8652 127.757C78.2273 120.481 75.7458 112.749 77.1851 105.354C77.5843 102.531 78.5754 99.8253 80.0935 97.4127C81.7214 95.09 84.4312 93.343 87.2602 93.5614C86.6448 93.5614 90.8138 85.7197 91.3895 85.0943C93.6401 82.8459 96.0555 80.7689 98.6158 78.8805C104.482 74.4324 111.407 71.5894 118.706 70.6318C130.506 68.9489 142.54 70.6028 153.448 75.4063C161.607 78.9699 169.191 84.3399 174.214 91.6555C184.458 106.664 178.472 127.201 175.534 143.728L167.444 142.289L83.6371 144.939Z" fill="#3F3030"/>
<path d="M92.2033 155.821C99.1765 155.821 104.829 150.95 104.829 144.942C104.829 138.933 99.1765 134.062 92.2033 134.062C85.2301 134.062 79.5771 138.933 79.5771 144.942C79.5771 150.95 85.2301 155.821 92.2033 155.821Z" fill="#FFBB9C"/>
<path d="M165.836 155.821C172.809 155.821 178.462 150.95 178.462 144.942C178.462 138.933 172.809 134.062 165.836 134.062C158.863 134.062 153.21 138.933 153.21 144.942C153.21 150.95 158.863 155.821 165.836 155.821Z" fill="#FFBB9C"/>
<path d="M129.357 180.418C119.794 180.42 110.58 176.825 103.546 170.346C96.5116 163.867 92.1721 154.979 91.3895 145.448C90.7145 137.219 89.0469 129.477 91.7171 121.407C92.4254 118.849 93.827 116.537 95.767 114.726C97.7522 113.049 100.819 112.354 103.122 113.624C104.482 108.354 109.942 104.969 115.401 104.353C120.86 103.738 126.201 105.346 131.412 106.865C141.101 109.778 150.523 113.518 159.573 118.042C170.303 123.382 167.514 132.186 167.514 142.321C167.515 147.329 166.528 152.289 164.611 156.915C162.693 161.542 159.881 165.745 156.337 169.284C152.793 172.822 148.586 175.627 143.956 177.538C139.326 179.448 134.366 180.427 129.357 180.418Z" fill="#FFBB9C"/>
<path d="M131.68 193.117H127.65C126.104 193.117 124.851 194.37 124.851 195.916V197.902C124.851 199.448 126.104 200.701 127.65 200.701H131.68C133.226 200.701 134.479 199.448 134.479 197.902V195.916C134.479 194.37 133.226 193.117 131.68 193.117Z" fill="#E9F4FF"/>
<path d="M126.906 200.703L120.831 235.157L129.665 246.741L136.296 234.581L132.435 200.703H126.906Z" fill="#E9F4FF"/>
<path d="M103.847 158.953H42.0664C39.6653 158.953 37.7188 160.9 37.7188 163.301V240.229C37.7188 242.63 39.6653 244.577 42.0664 244.577H103.847C106.248 244.577 108.195 242.63 108.195 240.229V163.301C108.195 160.9 106.248 158.953 103.847 158.953Z" fill="#FFBC0E"/>
<path d="M43.8223 162.922H102.089V237.448H43.8223V162.922Z" fill="white"/>
<path d="M97.0082 185.209C96.6612 188.803 95.5468 192.293 93.7321 195.468C91.9174 198.644 89.4402 201.438 86.4502 203.684C82.1488 207.102 77.1631 209.873 75.5012 215.692C75.44 216.033 75.2989 216.356 75.0883 216.638C74.8776 216.919 74.6027 217.153 74.2838 217.322C73.9649 217.49 73.6103 217.589 73.2457 217.61C72.8812 217.632 72.516 217.576 72.1772 217.447C70.3198 216.708 70.4177 215.138 70.9065 213.568C72.3883 209.469 75.2791 205.957 79.1182 203.591C84.933 200.102 89.18 194.708 91.0449 188.442C91.5614 186.637 91.7921 184.769 91.7293 182.9C91.8531 181.539 91.5239 180.175 90.7878 178.999C90.0517 177.823 88.9453 176.894 87.6233 176.341C84.3972 175.325 82.7353 177.727 80.8778 179.39C80.5216 179.767 80.195 180.168 79.9003 180.59C78.2384 182.438 77.6518 187.057 74.0347 184.378C70.4176 181.699 74.8168 179.574 76.1854 177.542C77.4563 175.39 79.4676 173.712 81.8858 172.788C84.304 171.864 86.9837 171.749 89.4808 172.462C92.0861 173.456 94.2532 175.263 95.6224 177.582C96.9916 179.9 97.4804 182.592 97.0082 185.209Z" fill="#C64F4E"/>
<path d="M70.8121 229.357C70.1984 229.311 69.626 229.047 69.2092 228.619C68.7923 228.191 68.5617 227.629 68.5637 227.048C68.5107 226.713 68.5435 226.37 68.659 226.049C68.7746 225.729 68.9696 225.439 69.2279 225.204C69.4863 224.969 69.8004 224.795 70.144 224.698C70.4876 224.601 70.8508 224.583 71.2033 224.646C72.4741 224.646 73.6472 225.385 73.5494 226.863C73.5496 227.198 73.4784 227.53 73.3397 227.839C73.2009 228.148 72.9976 228.427 72.7421 228.66C72.4865 228.893 72.1839 229.075 71.8523 229.194C71.5207 229.314 71.1669 229.369 70.8121 229.357Z" fill="#BF5B62"/>
<path d="M59.1937 190.47C60.455 190.538 61.6861 190.862 62.803 191.42C63.9199 191.978 64.8964 192.757 65.6663 193.704C66.4362 194.65 66.9812 195.742 67.2645 196.906C67.5477 198.069 67.5625 199.277 67.3077 200.446C67.1164 204.2 65.7181 207.809 63.2996 210.792C60.66 214.21 57.043 216.981 56.8475 221.692C56.849 221.947 56.7848 222.198 56.6606 222.424C56.5364 222.65 56.356 222.844 56.1346 222.99C55.9133 223.135 55.658 223.228 55.3904 223.259C55.1229 223.29 54.8512 223.26 54.5989 223.17C53.5236 223.17 53.4259 222.061 53.4259 221.138C53.5175 219.38 53.9797 217.658 54.7856 216.072C55.5914 214.485 56.7245 213.067 58.1183 211.9C61.2946 208.863 63.1444 204.806 63.2996 200.538C63.2996 197.398 62.6153 194.442 59.096 193.61C55.5766 192.779 54.7946 195.92 53.6214 198.229C52.4483 200.538 52.8394 202.201 50.2976 201.093C47.7559 199.984 49.6133 198.229 50.2976 196.751C50.8375 194.922 52.0031 193.314 53.6126 192.178C55.2221 191.041 57.1847 190.441 59.1937 190.47Z" fill="#BC5452"/>
<path d="M57.5265 230.014C57.5265 230.846 56.6467 231.492 55.6691 231.492C55.4471 231.506 55.2246 231.475 55.0165 231.4C54.8083 231.326 54.6194 231.211 54.4621 231.063C54.3049 230.914 54.1829 230.735 54.1044 230.539C54.026 230.342 53.9928 230.132 54.0072 229.922C54.0072 228.906 54.7893 228.444 55.8646 228.536C56.0814 228.508 56.3022 228.526 56.5107 228.589C56.7192 228.652 56.9101 228.758 57.0695 228.9C57.2288 229.042 57.3526 229.215 57.4317 229.408C57.5108 229.601 57.5432 229.808 57.5265 230.014Z" fill="#A85A5F"/>
<path d="M85.0565 154.883H60.8564C59.1899 154.883 57.8389 156.234 57.8389 157.9V162.427C57.8389 164.093 59.1899 165.444 60.8564 165.444H85.0565C86.7231 165.444 88.0741 164.093 88.0741 162.427V157.9C88.0741 156.234 86.7231 154.883 85.0565 154.883Z" fill="#68E1FD"/>
<path d="M186.661 178.769V167.215C186.661 165.925 186.149 164.688 185.237 163.776C184.324 162.864 183.087 162.352 181.797 162.352C180.507 162.352 179.27 162.864 178.358 163.776C177.446 164.688 176.934 165.925 176.934 167.215V181.807C175.832 183.604 175.187 186.442 175.187 190.949C175.187 203.178 180.894 205.292 186.741 205.292C192.587 205.292 199.833 200.746 200.548 197.282C201.878 190.989 192.111 179.266 186.661 178.769Z" fill="#FFBB9C"/>
<path d="M29.6285 198.917C29.6285 198.818 29.6285 198.728 29.6285 198.629C29.7347 197.45 30.072 196.303 30.6211 195.254C33.0729 191.988 36.9739 191.849 40.7359 190.926C43.2473 190.311 46.1953 189.775 48.1905 191.442C48.428 191.62 48.6104 191.861 48.7166 192.137C48.935 192.882 48.2203 193.557 47.5552 193.954C45.5803 195.14 43.3593 195.856 41.0635 196.048C43.286 195.616 45.5709 195.616 47.7935 196.048C48.9449 196.266 50.275 196.832 50.414 197.984C50.5728 199.363 48.9548 200.197 47.6148 200.525C45.6803 201.019 43.7081 201.351 41.7186 201.517C43.8966 201.259 46.0956 201.23 48.2798 201.428C49.064 201.508 49.9772 201.696 50.2651 202.421C50.3739 202.727 50.3866 203.06 50.3015 203.374C50.2163 203.688 50.0374 203.968 49.7886 204.178C49.2804 204.59 48.6817 204.876 48.0416 205.011C45.8807 205.614 43.6536 205.948 41.4109 206.004H46.8703C47.4635 205.98 48.0543 206.092 48.5975 206.332C48.8675 206.456 49.0904 206.665 49.2333 206.925C49.3763 207.186 49.4317 207.486 49.3916 207.781C49.2785 208.141 49.0432 208.45 48.7265 208.654C47.188 209.776 45.1134 209.548 43.2175 209.597C41.7896 209.54 40.3951 210.038 39.3264 210.987C38.4529 211.98 38.5422 213.409 37.2915 214.153C35.1971 215.384 32.1498 213.161 31.0479 211.483C29.5888 209.3 29.291 206.52 29.291 203.93C29.3034 202.253 29.4161 200.579 29.6285 198.917Z" fill="#FFBB9C"/>
<path d="M139.224 206.086H151.631V212.727H139.224V206.086Z" fill="white"/>
</svg>
