<svg width="30" height="31" viewBox="0 0 30 31" fill="none" xmlns="http://www.w3.org/2000/svg">
<path d="M29.9082 13.8827C29.8316 13.1021 29.1735 12.5204 28.3929 12.5204H16.8367C15.9949 12.5204 15.3061 13.2092 15.3061 14.051V16.6684C15.3061 17.5102 15.9949 18.199 16.8367 18.199H23.7398C23.5714 19.6072 22.6531 21.7347 20.6173 23.1582C19.3163 24.0612 17.5867 24.6888 15.3061 24.6888C15.199 24.6888 15.1071 24.6888 15 24.6735C11.097 24.551 7.79083 21.9337 6.59695 18.3368C6.27552 17.3725 6.09184 16.3623 6.09184 15.3061C6.09184 14.25 6.27552 13.2245 6.58164 12.2755C6.67348 12 6.78062 11.7245 6.90307 11.449C8.31123 8.28064 11.3878 6.04592 15 5.93878C15.0918 5.92348 15.199 5.92347 15.3061 5.92347C17.4949 5.92347 19.1326 6.64285 20.2806 7.43877C20.8775 7.85203 21.6735 7.7602 22.1939 7.25509L24.3214 5.17347C24.9949 4.51531 24.9337 3.39795 24.1684 2.84693C21.7347 1.05611 18.7653 0 15.3061 0C15.199 0 15.1071 1.53127e-05 15 0.0153214C9.13776 0.122464 4.10205 3.52043 1.63776 8.4337C0.59694 10.5153 0 12.8418 0 15.3061C0 17.7704 0.59694 20.097 1.63776 22.1786H1.65306C4.11735 27.0919 9.15307 30.4898 15 30.597C15.1071 30.6123 15.199 30.6123 15.3061 30.6123C19.4388 30.6123 22.9133 29.25 25.4388 26.9082C28.3316 24.2296 30 20.3112 30 15.6429C30 14.9847 29.9694 14.4184 29.9082 13.8827Z" fill="url(#paint0_linear_660_15786)"/>
<defs>
<linearGradient id="paint0_linear_660_15786" x1="6.53846" y1="5" x2="19.2308" y2="29.6154" gradientUnits="userSpaceOnUse">
<stop offset="0.131919" stop-color="#E8170A"/>
<stop offset="0.510417" stop-color="#C1BB2C" stop-opacity="0.97"/>
<stop offset="1" stop-color="#35E209" stop-opacity="0.37"/>
</linearGradient>
</defs>
</svg>
