<svg width="44" height="44" viewBox="0 0 44 44" fill="none" xmlns="http://www.w3.org/2000/svg">
<path d="M32.6066 32.6043C26.7624 38.4486 17.2376 38.4486 11.3934 32.6043C5.54916 26.7601 5.54916 17.2354 11.3934 11.3911C17.2376 5.5469 26.7624 5.5469 32.6066 11.3911C38.4508 17.2354 38.4508 26.7601 32.6066 32.6043ZM23.1243 15.9944C23.1243 15.3792 22.6152 14.8701 22 14.8701C21.6818 14.8701 21.406 14.9974 21.2045 15.1989C21.003 15.4004 20.8757 15.6762 20.8757 15.9944L20.8757 20.8734L15.9967 20.8734C15.6785 20.8734 15.4027 21.0007 15.2012 21.2022C14.9996 21.4038 14.8724 21.6795 14.8724 21.9977C14.8724 22.6129 15.3815 23.122 15.9967 23.122L20.8757 23.122L20.8757 28.0011C20.8757 28.6163 21.3848 29.1254 22 29.1254C22.6152 29.1254 23.1243 28.6163 23.1243 28.0011L23.1243 23.122L28.0033 23.122C28.6185 23.122 29.1276 22.6129 29.1276 21.9977C29.1276 21.3826 28.6185 20.8734 28.0033 20.8734L23.1243 20.8734L23.1243 15.9944Z" fill="#308AE4"/>
</svg>
