<svg width="44" height="50" viewBox="0 0 44 50" fill="none" xmlns="http://www.w3.org/2000/svg">
<rect x="13.6167" y="17.2031" width="12.1833" height="9.31667" fill="#D9D9D9"/>
<line x1="1.075" y1="13.6172" x2="1.075" y2="30.1005" stroke="#308AE4" stroke-width="2.15"/>
<rect x="2.14977" y="17.9198" width="10.75" height="7.88333" fill="white" stroke="#308AE4" stroke-width="1.43333"/>
<mask id="path-4-inside-1_288_4295" fill="white">
<path fill-rule="evenodd" clip-rule="evenodd" d="M34.4003 17.1953H25.8003V26.512H33.6836V35.112H43.0003V24.362C43.0003 20.4039 39.7917 17.1953 35.8336 17.1953H34.4022C34.4015 17.1953 34.4009 17.1953 34.4003 17.1953Z"/>
</mask>
<path fill-rule="evenodd" clip-rule="evenodd" d="M34.4003 17.1953H25.8003V26.512H33.6836V35.112H43.0003V24.362C43.0003 20.4039 39.7917 17.1953 35.8336 17.1953H34.4022C34.4015 17.1953 34.4009 17.1953 34.4003 17.1953Z" fill="#B5DCFF"/>
<path d="M25.8003 17.1953V15.762H24.367V17.1953H25.8003ZM25.8003 26.512H24.367V27.9453H25.8003V26.512ZM33.6836 26.512H35.117V25.0786H33.6836V26.512ZM33.6836 35.112H32.2503V36.5453H33.6836V35.112ZM43.0003 35.112V36.5453H44.4336V35.112H43.0003ZM34.4022 17.1953L34.4014 18.6286H34.4022V17.1953ZM25.8003 18.6286H34.4003V15.762H25.8003V18.6286ZM27.2336 26.512V17.1953H24.367V26.512H27.2336ZM33.6836 25.0786H25.8003V27.9453H33.6836V25.0786ZM35.117 35.112V26.512H32.2503V35.112H35.117ZM43.0003 33.6786H33.6836V36.5453H43.0003V33.6786ZM41.567 24.362V35.112H44.4336V24.362H41.567ZM35.8336 18.6286C39.0001 18.6286 41.567 21.1955 41.567 24.362H44.4336C44.4336 19.6123 40.5833 15.762 35.8336 15.762V18.6286ZM34.4022 18.6286H35.8336V15.762H34.4022V18.6286ZM34.4003 18.6286C34.4007 18.6286 34.4011 18.6286 34.4014 18.6286L34.4029 15.762C34.402 15.762 34.4012 15.762 34.4003 15.762V18.6286Z" fill="#308AE4" mask="url(#path-4-inside-1_288_4295)"/>
<line x1="10.0337" y1="14.6828" x2="28.667" y2="14.6828" stroke="#308AE4" stroke-width="2.15"/>
<path d="M14.3339 15.0448H25.0839V26.5115C25.0839 28.0947 23.8004 29.3781 22.2172 29.3781H17.2005C15.6173 29.3781 14.3339 28.0947 14.3339 26.5115V15.0448Z" fill="white" stroke="#308AE4" stroke-width="1.43333"/>
<path d="M39.0184 36.6826C38.8273 36.512 38.5619 36.512 38.3708 36.6826C37.3622 37.5659 34.384 40.4473 34.4 43.8038C34.4 46.5207 36.327 48.738 38.6999 48.738C41.0729 48.738 42.9999 46.5267 42.9999 43.8099C43.0052 40.5021 40.0218 37.572 39.0184 36.6826Z" fill="#B5DCFF" stroke="#308AE4" stroke-width="1.43333" stroke-miterlimit="10"/>
<mask id="path-9-inside-2_288_4295" fill="white">
<path fill-rule="evenodd" clip-rule="evenodd" d="M29.3831 1.4375H9.31641V7.8875H16.4831V15.0542H22.9331V7.8875H29.3831V1.4375Z"/>
</mask>
<path fill-rule="evenodd" clip-rule="evenodd" d="M29.3831 1.4375H9.31641V7.8875H16.4831V15.0542H22.9331V7.8875H29.3831V1.4375Z" fill="white"/>
<path d="M9.31641 1.4375V0.0041666H7.88307V1.4375H9.31641ZM29.3831 1.4375H30.8164V0.0041666H29.3831V1.4375ZM9.31641 7.8875H7.88307V9.32083H9.31641V7.8875ZM16.4831 7.8875H17.9164V6.45417H16.4831V7.8875ZM16.4831 15.0542H15.0497V16.4875H16.4831V15.0542ZM22.9331 15.0542V16.4875H24.3664V15.0542H22.9331ZM22.9331 7.8875V6.45417H21.4997V7.8875H22.9331ZM29.3831 7.8875V9.32083H30.8164V7.8875H29.3831ZM9.31641 2.87083H29.3831V0.0041666H9.31641V2.87083ZM10.7497 7.8875V1.4375H7.88307V7.8875H10.7497ZM16.4831 6.45417H9.31641V9.32083H16.4831V6.45417ZM17.9164 15.0542V7.8875H15.0497V15.0542H17.9164ZM22.9331 13.6208H16.4831V16.4875H22.9331V13.6208ZM21.4997 7.8875V15.0542H24.3664V7.8875H21.4997ZM29.3831 6.45417H22.9331V9.32083H29.3831V6.45417ZM27.9497 1.4375V7.8875H30.8164V1.4375H27.9497Z" fill="#308AE4" mask="url(#path-9-inside-2_288_4295)"/>
<circle cx="6.80824" cy="4.65833" r="3.94167" fill="#B5DCFF" stroke="#308AE4" stroke-width="1.43333"/>
<circle cx="31.8917" cy="4.65833" r="3.94167" fill="#B5DCFF" stroke="#308AE4" stroke-width="1.43333"/>
</svg>
