<svg width="43" height="49" viewBox="0 0 43 49" fill="none" xmlns="http://www.w3.org/2000/svg">
<rect x="13.6167" y="17.2031" width="12.1833" height="9.31667" fill="#D9D9D9"/>
<line x1="1.075" y1="13.6172" x2="1.075" y2="30.1005" stroke="#308AE4" stroke-width="2.15"/>
<rect x="2.14977" y="17.9198" width="10.75" height="7.88333" fill="white" stroke="#308AE4" stroke-width="1.43333"/>
<mask id="path-4-inside-1_290_4606" fill="white">
<path fill-rule="evenodd" clip-rule="evenodd" d="M33.6836 17.1953H25.8003V26.512H33.6836V35.112H43.0003V24.362C43.0003 20.4039 39.7917 17.1953 35.8336 17.1953H34.4003H33.6836Z"/>
</mask>
<path fill-rule="evenodd" clip-rule="evenodd" d="M33.6836 17.1953H25.8003V26.512H33.6836V35.112H43.0003V24.362C43.0003 20.4039 39.7917 17.1953 35.8336 17.1953H34.4003H33.6836Z" fill="#B5DCFF"/>
<path d="M25.8003 17.1953V15.762H24.367V17.1953H25.8003ZM25.8003 26.512H24.367V27.9453H25.8003V26.512ZM33.6836 26.512H35.117V25.0786H33.6836V26.512ZM33.6836 35.112H32.2503V36.5453H33.6836V35.112ZM43.0003 35.112V36.5453H44.4336V35.112H43.0003ZM25.8003 18.6286H33.6836V15.762H25.8003V18.6286ZM27.2336 26.512V17.1953H24.367V26.512H27.2336ZM33.6836 25.0786H25.8003V27.9453H33.6836V25.0786ZM35.117 35.112V26.512H32.2503V35.112H35.117ZM43.0003 33.6786H33.6836V36.5453H43.0003V33.6786ZM41.567 24.362V35.112H44.4336V24.362H41.567ZM35.8336 18.6286C39.0001 18.6286 41.567 21.1955 41.567 24.362H44.4336C44.4336 19.6123 40.5833 15.762 35.8336 15.762V18.6286ZM34.4003 18.6286H35.8336V15.762H34.4003V18.6286ZM33.6836 18.6286H34.4003V15.762H33.6836V18.6286Z" fill="#308AE4" mask="url(#path-4-inside-1_290_4606)"/>
<line x1="10.0337" y1="14.6906" x2="28.667" y2="14.6906" stroke="#308AE4" stroke-width="2.15"/>
<path d="M16.6852 30.0744C16.5741 29.9752 16.4198 29.9752 16.3087 30.0744C15.7223 30.5879 13.9908 32.2631 14 34.2146C14 35.7942 15.1204 37.0833 16.5 37.0833C17.8796 37.0833 19 35.7977 19 34.2181C19.0031 32.295 17.2685 30.5915 16.6852 30.0744Z" fill="#B5DCFF" stroke="#308AE4" stroke-miterlimit="10"/>
<mask id="path-8-inside-2_290_4606" fill="white">
<path fill-rule="evenodd" clip-rule="evenodd" d="M29.3836 1.4375H9.31689V7.8875H16.4836V15.0542H22.9336V7.8875H29.3836V1.4375Z"/>
</mask>
<path fill-rule="evenodd" clip-rule="evenodd" d="M29.3836 1.4375H9.31689V7.8875H16.4836V15.0542H22.9336V7.8875H29.3836V1.4375Z" fill="white"/>
<path d="M9.31689 1.4375V0.0041666H7.88356V1.4375H9.31689ZM29.3836 1.4375H30.8169V0.0041666H29.3836V1.4375ZM9.31689 7.8875H7.88356V9.32083H9.31689V7.8875ZM16.4836 7.8875H17.9169V6.45417H16.4836V7.8875ZM16.4836 15.0542H15.0502V16.4875H16.4836V15.0542ZM22.9336 15.0542V16.4875H24.3669V15.0542H22.9336ZM22.9336 7.8875V6.45417H21.5002V7.8875H22.9336ZM29.3836 7.8875V9.32083H30.8169V7.8875H29.3836ZM9.31689 2.87083H29.3836V0.0041666H9.31689V2.87083ZM10.7502 7.8875V1.4375H7.88356V7.8875H10.7502ZM16.4836 6.45417H9.31689V9.32083H16.4836V6.45417ZM17.9169 15.0542V7.8875H15.0502V15.0542H17.9169ZM22.9336 13.6208H16.4836V16.4875H22.9336V13.6208ZM21.5002 7.8875V15.0542H24.3669V7.8875H21.5002ZM29.3836 6.45417H22.9336V9.32083H29.3836V6.45417ZM27.9502 1.4375V7.8875H30.8169V1.4375H27.9502Z" fill="#308AE4" mask="url(#path-8-inside-2_290_4606)"/>
<circle cx="6.80775" cy="4.65833" r="3.94167" fill="#B5DCFF" stroke="#308AE4" stroke-width="1.43333"/>
<circle cx="31.8912" cy="4.65833" r="3.94167" fill="#B5DCFF" stroke="#308AE4" stroke-width="1.43333"/>
<mask id="path-12-inside-3_290_4606" fill="white">
<path fill-rule="evenodd" clip-rule="evenodd" d="M25.7995 14.3281H13.6162V26.5115C13.6162 27.6856 14.1809 28.7278 15.0535 29.3814L18.0967 26.8778L18.6318 30.0948H22.2162C24.1952 30.0948 25.7995 28.4905 25.7995 26.5115V14.3281Z"/>
</mask>
<path fill-rule="evenodd" clip-rule="evenodd" d="M25.7995 14.3281H13.6162V26.5115C13.6162 27.6856 14.1809 28.7278 15.0535 29.3814L18.0967 26.8778L18.6318 30.0948H22.2162C24.1952 30.0948 25.7995 28.4905 25.7995 26.5115V14.3281Z" fill="white"/>
<path d="M13.6162 14.3281V12.8948H12.1829V14.3281H13.6162ZM25.7995 14.3281H27.2329V12.8948H25.7995V14.3281ZM15.0535 29.3814L14.1943 30.5286L15.0951 31.2033L15.9642 30.4883L15.0535 29.3814ZM18.0967 26.8778L19.5106 26.6426L19.1032 24.1937L17.1861 25.7709L18.0967 26.8778ZM18.6318 30.0948L17.2179 30.33L17.4172 31.5281H18.6318V30.0948ZM13.6162 15.7615H25.7995V12.8948H13.6162V15.7615ZM15.0495 26.5115V14.3281H12.1829V26.5115H15.0495ZM15.9128 28.2341C15.386 27.8396 15.0495 27.215 15.0495 26.5115H12.1829C12.1829 28.1562 12.9759 29.6161 14.1943 30.5286L15.9128 28.2341ZM15.9642 30.4883L19.0073 27.9847L17.1861 25.7709L14.1429 28.2745L15.9642 30.4883ZM16.6828 27.113L17.2179 30.33L20.0457 29.8596L19.5106 26.6426L16.6828 27.113ZM22.2162 28.6615H18.6318V31.5281H22.2162V28.6615ZM24.3662 26.5115C24.3662 27.6989 23.4036 28.6615 22.2162 28.6615V31.5281C24.9868 31.5281 27.2329 29.2821 27.2329 26.5115H24.3662ZM24.3662 14.3281V26.5115H27.2329V14.3281H24.3662Z" fill="#308AE4" mask="url(#path-12-inside-3_290_4606)"/>
<line x1="18.5533" y1="25.7764" x2="19.5533" y2="23.7764" stroke="#308AE4"/>
<line x1="19.8935" y1="24.111" x2="18.5934" y2="22.2918" stroke="#308AE4"/>
<line x1="19.7496" y1="23.5675" x2="21.4749" y2="22.5669" stroke="#308AE4"/>
</svg>
