<svg width="403" height="493" viewBox="0 0 403 493" fill="none" xmlns="http://www.w3.org/2000/svg">
<path d="M188.086 171.567C266.9 183.519 187.626 311.836 309.15 335.915C297.197 414.73 177.83 517.589 144.801 456.979C108.773 363.209 11.7845 371.445 23.7372 292.631C35.6898 213.816 88.3946 156.448 188.086 171.567Z" fill="#E9F4FF"/>
<path d="M268.717 334.858C195.089 365.411 196.529 214.589 80.0791 256.865C49.5254 183.237 98.4463 33.4536 158.072 68.2277C237.422 129.827 316.155 72.5924 346.709 146.22C377.263 219.848 361.847 296.211 268.717 334.858Z" fill="#B5DCFF"/>
<path d="M209.156 434.565L210.445 445.19H217.643L217.746 434.238L209.156 434.565Z" fill="#FFC69D"/>
<path d="M248.995 466.985H205.075C205.075 466.985 204.989 464.563 205.264 460.869C205.648 454.682 206.885 448.577 208.941 442.728H218.604C222.363 447.406 227.579 450.693 233.422 452.065C241.239 453.997 246.358 455.011 248.213 460.869C248.784 462.856 249.047 464.919 248.995 466.985Z" fill="#404350"/>
<path d="M248.995 466.987H205.075C205.075 466.987 204.989 464.565 205.264 460.871H248.213C248.784 462.858 249.047 464.921 248.995 466.987Z" fill="#9AB3DA"/>
<path d="M224.042 436.533C217.997 437.628 211.822 437.819 205.72 437.1C205.72 437.1 197.938 371.534 190.413 328.146C189.7 324.049 188.996 320.149 188.292 316.516C187.999 314.952 187.713 313.44 187.433 311.98V279.236C187.402 275.21 188.14 271.216 189.606 267.468C191.899 261.738 196.529 255.287 205.755 255.287C217.385 255.287 221.706 266.231 223.261 272.793C223.813 275.136 224.101 277.533 224.12 279.94C224.18 296.252 224.833 394.34 224.042 436.533Z" fill="#DDDDDD"/>
<path d="M221.509 299.966C221.463 299.975 221.417 299.975 221.371 299.966C214.431 297.209 215.401 285.896 215.453 285.415C215.464 285.318 215.512 285.229 215.587 285.166C215.663 285.104 215.759 285.073 215.857 285.08C215.905 285.084 215.953 285.098 215.996 285.121C216.039 285.144 216.077 285.175 216.108 285.212C216.139 285.25 216.163 285.293 216.177 285.34C216.191 285.386 216.196 285.435 216.192 285.484C216.192 285.596 215.221 296.728 221.655 299.279C221.722 299.318 221.776 299.378 221.808 299.449C221.839 299.52 221.848 299.6 221.831 299.676C221.815 299.752 221.775 299.821 221.717 299.873C221.659 299.926 221.586 299.958 221.509 299.966Z" fill="#FFC69D"/>
<path d="M189.116 316.355C189.041 316.354 188.968 316.33 188.906 316.286C188.845 316.242 188.799 316.18 188.773 316.109C188.748 316.038 188.745 315.961 188.765 315.888C188.785 315.815 188.827 315.75 188.885 315.702L192.157 313.065C192.728 312.605 193.196 312.03 193.529 311.378C193.862 310.725 194.053 310.009 194.09 309.277C194.537 300.412 194.76 275.003 194.769 274.754C194.769 274.656 194.808 274.562 194.877 274.493C194.946 274.424 195.04 274.385 195.138 274.385C195.234 274.387 195.326 274.427 195.394 274.496C195.461 274.565 195.499 274.658 195.499 274.754C195.499 275.012 195.267 300.429 194.82 309.311C194.773 310.142 194.552 310.953 194.172 311.693C193.792 312.433 193.261 313.084 192.613 313.606L189.34 316.243C189.281 316.306 189.202 316.345 189.116 316.355Z" fill="#FFC69D"/>
<path d="M148.537 434.565L148.331 445.19H155.529L157.17 434.238L148.537 434.565Z" fill="#FFC69D"/>
<path d="M163.397 454.856C158.355 450.244 157.032 442.728 157.032 442.728H147.368C144.946 449.256 142.549 456.119 142.214 460.869C141.94 464.563 142.025 466.985 142.025 466.985H168.534C168.474 461.067 167.924 458.988 163.397 454.856Z" fill="#404350"/>
<path d="M142.214 460.871C141.94 464.565 142.025 466.987 142.025 466.987H168.534C168.61 464.926 168.381 462.865 167.855 460.871H142.214Z" fill="#9AB3DA"/>
<path d="M189.116 276.831V315.984L160.194 437.496C160.194 437.496 151.604 439.712 145.591 435.314C145.591 435.314 152.317 299.637 152.892 278.764C153.536 255.288 186.247 241.827 189.116 276.831Z" fill="#DDDDDD"/>
<path d="M158.947 299.964C158.85 299.964 158.756 299.925 158.686 299.855C158.617 299.786 158.578 299.692 158.578 299.594C158.578 299.496 158.617 299.402 158.686 299.333C158.756 299.264 158.85 299.225 158.947 299.225C163.242 299.225 165.673 294.458 166.129 285.043C166.131 284.995 166.143 284.947 166.163 284.903C166.184 284.859 166.213 284.819 166.249 284.787C166.285 284.754 166.327 284.729 166.372 284.712C166.418 284.696 166.467 284.689 166.515 284.691C166.564 284.693 166.611 284.705 166.655 284.725C166.699 284.746 166.739 284.775 166.771 284.811C166.804 284.847 166.829 284.889 166.846 284.935C166.862 284.98 166.87 285.029 166.867 285.077C166.378 294.956 163.715 299.964 158.947 299.964Z" fill="#FFC69D"/>
<path d="M221.508 167.311C221.508 167.311 246.418 201.455 251.821 220.353C257.224 239.251 237.073 242.687 222.899 218.85C208.726 195.013 203.357 182.343 203.357 182.343L221.508 167.311Z" fill="#9AB3DA"/>
<path d="M229.488 281.059C182.673 289.503 147.738 281.059 147.738 281.059C149.456 262.436 150.951 240.987 152.033 221.892C153.244 201.208 154.052 183.289 154.421 174.648C154.567 171.212 154.645 169.21 154.645 169.21C154.645 169.21 166.387 156.326 187.363 155.467C199.818 154.947 212.007 159.168 221.474 167.278C229.986 216.919 229.488 281.059 229.488 281.059Z" fill="#9AB3DA"/>
<path d="M227.667 224.079C227.558 224.08 227.452 224.038 227.372 223.963C227.293 223.888 227.244 223.785 227.238 223.676C225.924 203.18 223.982 185.021 221.465 169.654C221.447 169.54 221.475 169.424 221.543 169.33C221.61 169.237 221.712 169.174 221.826 169.156C221.94 169.138 222.057 169.165 222.15 169.233C222.243 169.301 222.306 169.403 222.324 169.517C224.85 184.892 226.791 203.094 228.105 223.633C228.109 223.689 228.101 223.746 228.083 223.799C228.064 223.853 228.036 223.902 227.998 223.944C227.961 223.986 227.915 224.021 227.864 224.046C227.813 224.07 227.758 224.085 227.702 224.088L227.667 224.079Z" fill="#404350"/>
<path d="M193.282 282.912C193.226 282.907 193.17 282.892 193.12 282.866C193.07 282.84 193.025 282.805 192.988 282.762C192.951 282.719 192.923 282.669 192.906 282.615C192.889 282.561 192.882 282.504 192.887 282.448C194.964 257.018 194.575 231.447 191.727 206.092C191.72 206.036 191.724 205.979 191.739 205.924C191.753 205.869 191.779 205.817 191.814 205.772C191.848 205.727 191.891 205.69 191.941 205.661C191.99 205.633 192.045 205.614 192.101 205.607C192.157 205.6 192.215 205.604 192.27 205.618C192.324 205.633 192.376 205.659 192.421 205.693C192.466 205.728 192.504 205.771 192.532 205.821C192.561 205.87 192.579 205.924 192.586 205.981C195.424 231.397 195.795 257.029 193.694 282.516C193.686 282.621 193.639 282.72 193.563 282.792C193.487 282.865 193.387 282.908 193.282 282.912Z" fill="#404350"/>
<path d="M156.758 277.19C156.646 277.179 156.542 277.124 156.47 277.038C156.397 276.951 156.362 276.839 156.372 276.726C159.198 245.047 158.244 206.152 158.227 205.765C158.227 205.652 158.272 205.542 158.353 205.462C158.433 205.381 158.543 205.336 158.657 205.336C158.77 205.336 158.88 205.381 158.96 205.462C159.041 205.542 159.086 205.652 159.086 205.765C159.086 206.152 160.057 245.098 157.222 276.821C157.207 276.93 157.15 277.03 157.064 277.098C156.978 277.167 156.868 277.2 156.758 277.19Z" fill="#404350"/>
<path d="M163.054 201.851C163.054 201.851 163.492 215.07 152.067 221.891C153.279 201.206 154.086 183.288 154.455 174.646C158.879 176.545 164.677 182.558 163.054 201.851Z" fill="#404350"/>
<path d="M184.674 148.775C167.563 150.639 160.906 170.396 160.906 170.396C160.906 170.396 179.185 180.283 192.379 208.192C192.379 208.192 202.284 174.545 211.732 157.511C207.93 156.396 204.2 155.045 200.566 153.466C194.982 150.992 190.258 148.2 184.674 148.775Z" fill="#9AB3DA"/>
<path d="M192.38 208.617C192.298 208.617 192.219 208.593 192.15 208.549C192.082 208.505 192.027 208.442 191.993 208.368C179.014 180.881 160.889 170.865 160.709 170.762C160.619 170.714 160.549 170.636 160.511 170.542C160.473 170.447 160.47 170.343 160.503 170.246C161.408 167.77 162.559 165.39 163.939 163.143C163.968 163.094 164.006 163.052 164.052 163.018C164.098 162.985 164.15 162.96 164.205 162.947C164.26 162.933 164.317 162.931 164.373 162.939C164.429 162.948 164.483 162.967 164.531 162.997C164.58 163.026 164.622 163.064 164.656 163.11C164.689 163.156 164.713 163.208 164.727 163.263C164.741 163.318 164.743 163.375 164.735 163.431C164.726 163.487 164.707 163.541 164.677 163.589C163.4 165.69 162.313 167.901 161.43 170.195C163.913 171.664 180.182 182.023 192.285 206.994C193.934 201.548 201.682 176.5 209.465 160.823C209.521 160.73 209.61 160.662 209.714 160.632C209.818 160.602 209.93 160.613 210.027 160.661C210.123 160.71 210.198 160.794 210.236 160.896C210.273 160.998 210.271 161.11 210.229 161.21C201.545 178.725 192.878 208.016 192.835 208.325C192.811 208.409 192.762 208.484 192.694 208.539C192.627 208.594 192.544 208.627 192.457 208.634L192.38 208.617Z" fill="#404350"/>
<path d="M192.122 202.03C192.122 202.03 178.378 180.495 176.076 171.966C176.016 171.734 175.956 171.519 175.913 171.313C174.195 163.29 175.398 153.274 184.606 152.552C188.97 152.2 196.915 155.49 198.135 166.296C198.208 166.924 198.248 167.554 198.255 168.186C198.582 179.757 192.122 202.03 192.122 202.03Z" fill="white"/>
<path d="M198.255 168.198C194.691 166.39 190.75 165.448 186.753 165.449C180.741 167.27 177.485 170.337 176.076 171.977C176.016 171.745 175.956 171.531 175.913 171.324C174.195 163.301 175.398 153.286 184.606 152.564C188.97 152.212 196.915 155.502 198.135 166.308C198.208 166.935 198.248 167.566 198.255 168.198Z" fill="#F9F5FD"/>
<path d="M191.761 197.956C191.673 197.955 191.588 197.922 191.522 197.864C191.456 197.805 191.412 197.725 191.4 197.638L187.457 168.072C187.447 168.022 187.446 167.97 187.457 167.92C187.467 167.87 187.488 167.823 187.517 167.781C187.546 167.739 187.584 167.704 187.628 167.678C187.672 167.652 187.721 167.635 187.771 167.628C187.822 167.622 187.873 167.626 187.922 167.64C187.971 167.654 188.017 167.679 188.056 167.711C188.095 167.744 188.127 167.785 188.15 167.83C188.172 167.876 188.185 167.926 188.188 167.977L192.13 197.544C192.142 197.64 192.116 197.738 192.056 197.815C191.997 197.892 191.909 197.943 191.812 197.956H191.761Z" fill="#FFC69D"/>
<path d="M210.513 179.982L201.425 184.277C201.425 184.277 205.788 236.461 210.298 250.419C214.808 264.378 247.234 284.564 247.234 284.564L255.18 278.766L210.513 179.982Z" fill="#17A1FA"/>
<path d="M210.513 179.978C210.513 179.978 214.378 236.886 218.673 246.979C222.968 257.072 255.18 278.762 255.18 278.762C255.18 278.762 277.299 254.496 278.802 243.543C280.305 232.591 277.299 176.757 277.299 176.757C277.299 176.757 241.221 171.174 210.513 179.978Z" fill="#17A1FA"/>
<path d="M252.964 277.627C252.887 277.627 252.812 277.603 252.749 277.559C245.594 272.594 221.963 255.723 218.304 247.125C214.568 238.346 211.218 195.354 210.281 182.383C210.278 182.335 210.284 182.286 210.299 182.24C210.315 182.194 210.339 182.151 210.371 182.114C210.403 182.077 210.442 182.047 210.485 182.026C210.529 182.004 210.576 181.991 210.625 181.988C210.674 181.983 210.723 181.989 210.769 182.003C210.816 182.018 210.859 182.043 210.896 182.075C210.933 182.107 210.963 182.146 210.985 182.19C211.006 182.235 211.018 182.283 211.02 182.332C211.69 191.54 215.203 237.942 218.983 246.833C222.565 255.251 246.058 272.01 253.17 276.949C253.237 276.993 253.288 277.057 253.316 277.132C253.343 277.207 253.345 277.289 253.322 277.365C253.299 277.442 253.251 277.509 253.187 277.556C253.122 277.603 253.044 277.628 252.964 277.627Z" fill="#B5DCFF"/>
<path d="M230.914 215.312C230.914 215.312 230.269 204.687 229.84 196.741C229.41 188.795 236.068 184.277 244.374 184.389C252.68 184.5 257.8 188.898 258.333 195.77C258.865 202.642 259.621 214.668 259.621 214.668L254.364 214.78C254.364 214.78 254.261 200.718 253.617 196.311C252.972 191.905 250.181 188.864 244.168 189.079C238.155 189.294 235.329 192.515 235.432 196.81C235.535 201.105 236.643 215.201 236.643 215.201L230.914 215.312Z" fill="#B5DCFF"/>
<path d="M224.472 214.767C224.472 214.767 226.516 242.039 227.375 250.741C227.375 250.741 252.071 250.956 269.465 248.705C269.465 248.705 269.895 224.868 268.821 213.701C268.821 213.693 244.228 212.834 224.472 214.767Z" fill="#B5DCFF"/>
<path d="M253.394 224.898C253.381 226.09 253.004 227.25 252.313 228.222C251.622 229.193 250.651 229.931 249.529 230.335V244.766H246.093V230.447C245.029 230.123 244.099 229.463 243.441 228.567C242.783 227.67 242.433 226.585 242.442 225.473C242.417 224.017 242.952 222.607 243.937 221.535C244.921 220.462 246.281 219.809 247.734 219.71C248.45 219.661 249.169 219.758 249.847 219.995C250.525 220.232 251.147 220.605 251.676 221.09C252.206 221.575 252.631 222.163 252.926 222.818C253.222 223.472 253.381 224.18 253.394 224.898Z" fill="#E9F4FF"/>
<path d="M153.537 277.258C147.676 277.258 141.946 278.996 137.073 282.252C132.2 285.509 128.401 290.137 126.158 295.552C123.915 300.967 123.328 306.926 124.472 312.674C125.615 318.423 128.438 323.703 132.582 327.848C136.727 331.992 142.007 334.815 147.756 335.958C153.504 337.102 159.463 336.515 164.878 334.272C170.293 332.029 174.922 328.231 178.178 323.357C181.434 318.484 183.172 312.754 183.172 306.893C183.172 299.033 180.05 291.495 174.492 285.938C168.935 280.38 161.397 277.258 153.537 277.258ZM153.537 328.582C149.248 328.582 145.054 327.31 141.487 324.927C137.921 322.544 135.141 319.156 133.499 315.193C131.857 311.23 131.428 306.869 132.265 302.661C133.102 298.454 135.167 294.589 138.201 291.556C141.234 288.523 145.099 286.457 149.306 285.62C153.513 284.783 157.874 285.213 161.838 286.854C165.801 288.496 169.188 291.276 171.571 294.843C173.955 298.41 175.227 302.603 175.227 306.893C175.228 309.741 174.668 312.562 173.578 315.194C172.488 317.826 170.891 320.218 168.877 322.232C166.862 324.246 164.471 325.844 161.839 326.933C159.207 328.023 156.386 328.583 153.537 328.582Z" fill="#404350"/>
<path d="M157.659 334.597H149.421C148.572 334.597 147.884 335.285 147.884 336.134V471.966C147.884 472.815 148.572 473.503 149.421 473.503H157.659C158.508 473.503 159.197 472.815 159.197 471.966V336.134C159.197 335.285 158.508 334.597 157.659 334.597Z" fill="#9AB3DA"/>
<path d="M140.978 437.957H147.884V467.489H140.978V437.957Z" fill="#404350"/>
<path d="M140.979 437.428V468.033C140.982 468.445 140.904 468.853 140.749 469.235C140.594 469.616 140.365 469.963 140.075 470.255C139.785 470.547 139.44 470.779 139.06 470.937C138.68 471.096 138.272 471.177 137.861 471.177H125.405C124.581 471.177 123.79 470.85 123.207 470.266C122.624 469.683 122.296 468.892 122.296 468.068V463.335H131.796C132.266 463.335 132.716 463.148 133.048 462.816C133.379 462.485 133.566 462.035 133.566 461.565V458.129C133.566 457.66 133.379 457.21 133.048 456.878C132.716 456.546 132.266 456.36 131.796 456.36H122.296V449.161H131.796C132.266 449.161 132.716 448.975 133.048 448.643C133.379 448.311 133.566 447.861 133.566 447.392V443.956C133.566 443.487 133.379 443.037 133.048 442.705C132.716 442.373 132.266 442.186 131.796 442.186H122.296V437.462C122.296 436.637 122.624 435.846 123.207 435.263C123.79 434.68 124.581 434.353 125.405 434.353H137.861C138.68 434.352 139.467 434.675 140.051 435.251C140.634 435.826 140.968 436.608 140.979 437.428Z" fill="#9AB3DA"/>
<path d="M160.407 324.223H146.664C145.814 324.223 145.126 324.911 145.126 325.76V336.498C145.126 337.347 145.814 338.035 146.664 338.035H160.407C161.257 338.035 161.945 337.347 161.945 336.498V325.76C161.945 324.911 161.257 324.223 160.407 324.223Z" fill="#404350"/>
<path d="M154.679 169.242C154.679 169.242 127.26 194.436 118.816 218.488C118.816 218.488 121.969 242.685 130.559 258.86L145.015 253.852L141.434 222.645L162.762 203.748C162.762 203.748 167.779 175.968 154.679 169.242Z" fill="#9AB3DA"/>
<path d="M127.02 256.859C127.02 256.859 136.039 248.699 147.532 249.557L149.25 258.474C149.25 258.474 145.067 266.419 132.285 267.175C130.185 263.924 128.421 260.467 127.02 256.859Z" fill="#404350"/>
<path d="M160.048 287.784C159.55 288.789 157.832 289.287 157.334 286.994C157.334 286.994 157.042 288.712 155.684 288.858C154.327 289.004 153.966 286.994 153.966 286.994C153.966 286.994 152.961 289.004 151.673 288.789C150.385 288.574 150.462 286.35 150.462 286.35C150.462 286.35 148.959 287.999 147.885 287.071C146.811 286.144 147.378 283.06 147.524 280.483C147.524 280.483 139.793 273.68 139.364 271.61C139.105 270.167 139.033 268.698 139.149 267.237L136.478 262.633C139.137 260.806 142.152 259.562 145.325 258.982L148.383 265.167C148.383 265.167 158.33 273.327 159.55 274.685C160.77 276.042 160.555 286.779 160.048 287.784Z" fill="#FFC69D"/>
<path d="M189.546 159.794C189.457 160.507 189.221 161.195 188.851 161.812C188.481 162.429 187.986 162.961 187.398 163.376C181.239 163.161 181.239 158.935 181.239 158.935L181.523 146.986L181.609 143.189L181.669 140.535L189.116 143.688L189.262 149.194L189.339 152.089L189.546 159.794Z" fill="#FFC69D"/>
<path d="M189.339 152.089C185.19 151.281 182.837 149.228 181.522 146.986L181.608 143.189L181.668 140.535L189.116 143.688L189.262 149.194L189.339 152.089Z" fill="#404350"/>
<path d="M195.017 135.864C195.17 135.38 195.425 134.935 195.763 134.557C196.101 134.179 196.516 133.877 196.979 133.671C197.442 133.465 197.944 133.36 198.451 133.361C198.959 133.363 199.46 133.472 199.921 133.682C203.684 135.039 200.566 142.882 195.309 141.482L195.017 135.864Z" fill="#FFC69D"/>
<path d="M197.843 122.764C197.843 122.764 201.133 126.698 201.133 128.631C201.133 130.563 195.335 137.152 195.335 137.152L193.694 123.983L197.843 122.764Z" fill="#404350"/>
<path d="M175.939 129.847C175.398 138.283 182.038 148.453 189.15 148.676C196.263 148.9 198.702 130.998 196.194 124.625C193.686 118.251 176.875 115.322 175.939 129.847Z" fill="#FFC69D"/>
<path d="M180.096 139.514L179.091 136.172C179.091 136.172 182.381 134.308 182.81 127.797C182.81 127.797 192.113 131.164 199.415 124.576C206.716 117.987 203.778 105.609 201.923 104.673C200.068 103.737 189.313 109.226 185.104 114.981C185.104 114.981 186.324 110.042 182.888 111.116C179.452 112.189 174.796 122.626 174.796 122.626C174.796 122.626 170.14 120.762 168.208 124.413C166.275 128.063 178.035 139.514 178.035 139.514H180.088H180.096Z" fill="#404350"/>
<path d="M178.396 138.339C178.396 138.339 176.454 132.901 172.383 133.34C168.311 133.778 167.959 146.224 179.821 141.457L178.396 138.339Z" fill="#FFC69D"/>
</svg>
