<svg width="329" height="402" viewBox="0 0 329 402" fill="none" xmlns="http://www.w3.org/2000/svg">
<path d="M153.466 139.985C217.773 149.738 153.091 254.436 252.246 274.083C242.494 338.391 145.098 422.317 118.148 372.864C88.7521 296.353 9.61542 303.073 19.368 238.766C29.1206 174.458 72.1243 127.65 153.466 139.985Z" fill="#E9F4FF"/>
<path d="M219.255 273.222C159.18 298.152 160.355 175.09 65.3392 209.585C40.4094 149.51 80.3257 27.296 128.976 55.6694C193.721 105.93 257.962 59.2307 282.892 119.306C307.822 179.382 295.244 241.689 219.255 273.222Z" fill="#B5DCFF"/>
<path d="M253.688 247.881L228.968 250.464L223.647 275.65C223.647 275.65 211.222 260.151 206.675 252.776C202.93 246.758 196.859 240.984 187.005 240.984H147.845C144.834 240.984 141.853 241.579 139.073 242.733C136.293 243.887 133.768 245.579 131.643 247.711C129.518 249.844 127.835 252.374 126.69 255.158C125.545 257.942 124.961 260.925 124.971 263.936V333.551H203.666V297.245C203.666 297.245 217.486 316.179 229.924 313.7C256.982 309.915 255.148 261.675 253.688 247.881Z" fill="#17A1FA"/>
<path d="M159.856 232.531H176.775V242.27C176.775 244.174 176.019 246.001 174.672 247.347C173.325 248.694 171.499 249.451 169.594 249.451H167.011C165.107 249.451 163.28 248.694 161.933 247.347C160.587 246.001 159.83 244.174 159.83 242.27V232.531H159.856Z" fill="#FFBB9C"/>
<path d="M108.826 188.597C107.999 188.597 104.37 168.229 103.918 166.24C101.787 156.773 98.5577 146.712 100.43 137.089C100.95 133.417 102.239 129.896 104.215 126.757C106.333 123.735 109.859 121.461 113.54 121.746C112.739 121.746 118.164 111.542 118.913 110.729C121.841 107.803 124.984 105.1 128.315 102.643C135.949 96.8556 144.959 93.1564 154.457 91.9104C169.81 89.7206 185.469 91.8726 199.662 98.1229C210.278 102.76 220.146 109.747 226.681 119.266C240.01 138.794 232.222 165.517 228.399 187.021L217.873 185.149L108.826 188.597Z" fill="#3F3030"/>
<path d="M119.972 202.756C129.045 202.756 136.4 196.419 136.4 188.601C136.4 180.783 129.045 174.445 119.972 174.445C110.898 174.445 103.543 180.783 103.543 188.601C103.543 196.419 110.898 202.756 119.972 202.756Z" fill="#FFBB9C"/>
<path d="M215.78 202.756C224.854 202.756 232.209 196.419 232.209 188.601C232.209 180.783 224.854 174.445 215.78 174.445C206.707 174.445 199.352 180.783 199.352 188.601C199.352 196.419 206.707 202.756 215.78 202.756Z" fill="#FFBB9C"/>
<path d="M168.316 234.757C155.873 234.76 143.884 230.082 134.731 221.652C125.578 213.222 119.932 201.657 118.913 189.255C118.035 178.548 115.865 168.474 119.34 157.974C120.261 154.646 122.085 151.638 124.609 149.281C127.192 147.099 131.183 146.195 134.18 147.848C135.949 140.99 143.053 136.585 150.156 135.785C157.26 134.984 164.209 137.076 170.989 139.052C183.597 142.843 195.856 147.709 207.631 153.595C221.593 160.544 217.964 172 217.964 185.187C217.965 191.704 216.682 198.157 214.187 204.177C211.691 210.197 208.033 215.665 203.421 220.27C198.81 224.874 193.335 228.524 187.311 231.01C181.288 233.496 174.833 234.769 168.316 234.757Z" fill="#FFBB9C"/>
<path d="M171.337 251.289H166.093C164.082 251.289 162.451 252.92 162.451 254.931V257.514C162.451 259.526 164.082 261.157 166.093 261.157H171.337C173.349 261.157 174.979 259.526 174.979 257.514V254.931C174.979 252.92 173.349 251.289 171.337 251.289Z" fill="#F56132"/>
<path d="M165.126 261.156L157.222 305.987L168.717 321.059L177.344 305.237L172.32 261.156H165.126Z" fill="#F56132"/>
<path d="M135.122 206.836H54.7352C51.6109 206.836 49.0781 209.369 49.0781 212.493V312.589C49.0781 315.714 51.6109 318.247 54.7352 318.247H135.122C138.247 318.247 140.779 315.714 140.779 312.589V212.493C140.779 209.369 138.247 206.836 135.122 206.836Z" fill="#FFBC0E"/>
<path d="M57.0205 211.992H132.836V308.963H57.0205V211.992Z" fill="white"/>
<path d="M110.673 201.539H79.1842C77.0157 201.539 75.2578 203.297 75.2578 205.465V211.355C75.2578 213.523 77.0157 215.281 79.1842 215.281H110.673C112.841 215.281 114.599 213.523 114.599 211.355V205.465C114.599 203.297 112.841 201.539 110.673 201.539Z" fill="#68E1FD"/>
<path d="M242.878 232.613V217.579C242.878 215.9 242.211 214.29 241.024 213.104C239.837 211.917 238.228 211.25 236.549 211.25C234.871 211.25 233.261 211.917 232.074 213.104C230.887 214.29 230.22 215.9 230.22 217.579V236.565C228.787 238.902 227.947 242.596 227.947 248.46C227.947 264.372 235.374 267.123 242.981 267.123C250.588 267.123 260.017 261.208 260.947 256.7C262.678 248.512 249.969 233.258 242.878 232.613Z" fill="#FFBB9C"/>
<path d="M257.782 229.219H237.466C235.44 229.219 233.798 230.861 233.798 232.887V232.9C233.798 234.926 235.44 236.568 237.466 236.568H257.782C259.808 236.568 261.45 234.926 261.45 232.9V232.887C261.45 230.861 259.808 229.219 257.782 229.219Z" fill="#FFBB9C"/>
<path d="M257.782 236.562H237.466C235.44 236.562 233.798 238.205 233.798 240.231V240.243C233.798 242.269 235.44 243.912 237.466 243.912H257.782C259.808 243.912 261.45 242.269 261.45 240.243V240.231C261.45 238.205 259.808 236.562 257.782 236.562Z" fill="#FFBB9C"/>
<path d="M257.782 243.898H237.466C235.44 243.898 233.798 245.541 233.798 247.566V247.579C233.798 249.605 235.44 251.247 237.466 251.247H257.782C259.808 251.247 261.45 249.605 261.45 247.579V247.566C261.45 245.541 259.808 243.898 257.782 243.898Z" fill="#FFBB9C"/>
<path d="M89.6329 255.488H67.2242C66.8816 255.488 66.5531 255.352 66.3109 255.109C66.0687 254.867 65.9326 254.539 65.9326 254.196V229.346C65.9326 229.004 66.0687 228.675 66.3109 228.433C66.5531 228.191 66.8816 228.055 67.2242 228.055H89.6329C89.9754 228.055 90.3039 228.191 90.5462 228.433C90.7884 228.675 90.9244 229.004 90.9244 229.346V254.196C90.9244 254.539 90.7884 254.867 90.5462 255.109C90.3039 255.352 89.9754 255.488 89.6329 255.488ZM68.5157 252.904H88.3413V230.638H68.5157V252.904Z" fill="#DFEAEF"/>
<path d="M75.8522 251.436C75.6516 251.435 75.452 251.409 75.258 251.358C74.84 251.259 74.4534 251.057 74.1332 250.77C73.8129 250.484 73.5692 250.122 73.424 249.718L69.4718 238.74C69.3452 238.418 69.2843 238.075 69.2928 237.729C69.3012 237.384 69.3788 237.044 69.5209 236.729C69.6631 236.415 69.8669 236.132 70.1204 235.897C70.3738 235.662 70.6717 235.481 70.9965 235.363C71.3213 235.246 71.6663 235.195 72.0112 235.213C72.3561 235.231 72.6938 235.318 73.0045 235.469C73.3151 235.62 73.5923 235.832 73.8196 236.092C74.047 236.352 74.2199 236.655 74.3281 236.983L76.9112 244.255L92.2551 229.699C92.7535 229.228 93.4186 228.974 94.104 228.993C94.7895 229.013 95.4392 229.303 95.9102 229.802C96.3812 230.3 96.6349 230.965 96.6156 231.651C96.5962 232.336 96.3053 232.986 95.8069 233.457L77.6087 250.725C77.1343 251.176 76.5065 251.43 75.8522 251.436Z" fill="#093F68"/>
<path d="M125.113 238.63H98.7388C98.3963 238.63 98.0678 238.494 97.8256 238.252C97.5833 238.01 97.4473 237.681 97.4473 237.338C97.4473 236.996 97.5833 236.667 97.8256 236.425C98.0678 236.183 98.3963 236.047 98.7388 236.047H125.113C125.455 236.047 125.784 236.183 126.026 236.425C126.268 236.667 126.404 236.996 126.404 237.338C126.404 237.681 126.268 238.01 126.026 238.252C125.784 238.494 125.455 238.63 125.113 238.63Z" fill="#DFEAEF"/>
<path d="M117.376 247.489H98.7388C98.3963 247.489 98.0678 247.353 97.8256 247.111C97.5833 246.869 97.4473 246.54 97.4473 246.198C97.4473 245.855 97.5833 245.527 97.8256 245.285C98.0678 245.042 98.3963 244.906 98.7388 244.906H117.376C117.719 244.906 118.047 245.042 118.289 245.285C118.532 245.527 118.668 245.855 118.668 246.198C118.668 246.54 118.532 246.869 118.289 247.111C118.047 247.353 117.719 247.489 117.376 247.489Z" fill="#DFEAEF"/>
<path d="M89.6329 292.079H67.2242C66.8816 292.079 66.5531 291.943 66.3109 291.7C66.0687 291.458 65.9326 291.13 65.9326 290.787V265.924C65.9326 265.582 66.0687 265.253 66.3109 265.011C66.5531 264.769 66.8816 264.633 67.2242 264.633H89.6329C89.9754 264.633 90.3039 264.769 90.5462 265.011C90.7884 265.253 90.9244 265.582 90.9244 265.924V290.787C90.9244 291.13 90.7884 291.458 90.5462 291.7C90.3039 291.943 89.9754 292.079 89.6329 292.079ZM68.5157 289.495H88.3413V267.216H68.5157V289.495Z" fill="#DFEAEF"/>
<path d="M75.8524 288.014C75.6548 288.033 75.4558 288.033 75.2582 288.014C74.8402 287.915 74.4536 287.713 74.1334 287.426C73.8131 287.14 73.5694 286.778 73.4242 286.374L69.472 275.382C69.3374 275.059 69.2699 274.712 69.2736 274.362C69.2773 274.012 69.3521 273.666 69.4934 273.346C69.6348 273.026 69.8398 272.738 70.096 272.499C70.3522 272.26 70.6542 272.076 70.9837 271.958C71.3132 271.84 71.6633 271.79 72.0127 271.811C72.3621 271.832 72.7037 271.924 73.0165 272.081C73.3293 272.238 73.6069 272.457 73.8324 272.725C74.0579 272.993 74.2266 273.304 74.3283 273.639L76.9114 280.897L92.2553 266.354C92.4978 266.104 92.7884 265.906 93.1095 265.771C93.4306 265.637 93.7756 265.568 94.1239 265.57C94.4721 265.572 94.8163 265.645 95.1359 265.783C95.4554 265.922 95.7436 266.123 95.9833 266.376C96.2229 266.629 96.4089 266.927 96.5302 267.254C96.6515 267.58 96.7056 267.928 96.6891 268.276C96.6727 268.623 96.5861 268.964 96.4345 269.278C96.2829 269.591 96.0695 269.871 95.8071 270.1L77.6089 287.368C77.1247 287.795 76.498 288.026 75.8524 288.014Z" fill="#093F68"/>
<path d="M125.113 275.208H98.7388C98.3963 275.208 98.0678 275.072 97.8256 274.83C97.5833 274.588 97.4473 274.259 97.4473 273.917C97.4473 273.574 97.5833 273.246 97.8256 273.003C98.0678 272.761 98.3963 272.625 98.7388 272.625H125.113C125.455 272.625 125.784 272.761 126.026 273.003C126.268 273.246 126.404 273.574 126.404 273.917C126.404 274.259 126.268 274.588 126.026 274.83C125.784 275.072 125.455 275.208 125.113 275.208Z" fill="#DFEAEF"/>
<path d="M117.376 284.083H98.7388C98.3963 284.083 98.0678 283.947 97.8256 283.705C97.5833 283.463 97.4473 283.134 97.4473 282.792C97.4473 282.449 97.5833 282.121 97.8256 281.878C98.0678 281.636 98.3963 281.5 98.7388 281.5H117.376C117.719 281.5 118.047 281.636 118.289 281.878C118.532 282.121 118.668 282.449 118.668 282.792C118.668 283.134 118.532 283.463 118.289 283.705C118.047 283.947 117.719 284.083 117.376 284.083Z" fill="#DFEAEF"/>
<path d="M38.5514 258.832C38.5514 258.702 38.5514 258.586 38.5514 258.457C38.6897 256.923 39.1285 255.431 39.843 254.066C43.0332 249.816 48.109 249.636 53.0041 248.434C56.2717 247.634 60.1077 246.936 62.7038 249.106C63.0128 249.337 63.2501 249.65 63.3883 250.01C63.6724 250.979 62.7425 251.857 61.8771 252.374C59.3074 253.917 56.4175 254.85 53.4303 255.099C56.3222 254.537 59.2952 254.537 62.1871 255.099C63.6853 255.383 65.416 256.119 65.5969 257.617C65.8035 259.413 63.6983 260.498 61.9546 260.924C59.4376 261.566 56.8714 261.998 54.2827 262.215C57.1167 261.88 59.9779 261.841 62.82 262.099C63.8403 262.203 65.0286 262.448 65.4031 263.391C65.5447 263.79 65.5612 264.222 65.4505 264.631C65.3397 265.039 65.1069 265.404 64.7832 265.677C64.1219 266.213 63.3428 266.585 62.51 266.762C59.6983 267.546 56.8005 267.98 53.8823 268.053H60.986C61.7578 268.022 62.5265 268.168 63.2333 268.48C63.5847 268.642 63.8747 268.913 64.0607 269.252C64.2467 269.592 64.3188 269.982 64.2665 270.365C64.1194 270.833 63.8133 271.235 63.4012 271.502C61.3993 272.961 58.6999 272.664 56.233 272.729C54.3751 272.655 52.5606 273.303 51.1701 274.537C50.0335 275.829 50.1497 277.688 48.5223 278.657C45.7971 280.259 41.832 277.366 40.3984 275.183C38.4998 272.341 38.1123 268.725 38.1123 265.354C38.1284 263.173 38.275 260.995 38.5514 258.832Z" fill="#FFBB9C"/>
<path d="M181.153 268.156H197.298V276.797H181.153V268.156Z" fill="white"/>
</svg>
