<svg width="196" height="188" viewBox="0 0 196 188" fill="none" xmlns="http://www.w3.org/2000/svg">
<ellipse cx="98" cy="94" rx="98" ry="94" fill="#B5DCFF"/>
<g filter="url(#filter0_d_1562_17212)">
<path d="M125.801 153.709C116.19 153.631 101.767 153.253 87.5781 151.916C77.8106 150.992 67.7202 149.533 60.0577 145.189C57.8971 143.964 55.5359 143.663 53.4421 143.407C52.5511 143.296 51.7158 143.196 51.003 143.028C45.568 141.748 41.7702 137.048 41.7479 131.602L41.6699 95.1267C41.6588 90.0815 45.2562 85.8605 50.2346 85.0808C50.3237 85.0697 50.4016 85.0474 50.4907 85.0252C51.1033 84.8247 65.7378 80.0579 76.7637 71.4376C81.9537 67.3836 86.3975 61.1356 88.6584 54.7316C90.9082 48.3499 90.897 41.389 90.8859 35.7981C90.8859 32.1896 90.8748 27.7012 91.8548 27.0441C94.2382 25.4738 96.8666 24.6719 99.6621 24.6719C108.26 24.6719 117.036 32.5237 117.382 40.5203C117.627 46.0667 115.767 52.6155 113.974 58.9415C111.858 66.4369 110.02 72.9077 111.679 77.307C111.924 77.9641 112.548 78.3873 113.239 78.3873C113.261 78.3873 121.358 78.1089 121.358 78.1089H121.436C130.524 78.1089 137.919 85.5041 137.93 94.581L137.986 141.592C137.986 144.833 136.738 147.873 134.444 150.156C132.161 152.44 129.12 153.709 125.879 153.709H125.801Z" fill="#26F92F"/>
<path d="M99.6628 26.3412C107.303 26.3412 115.4 33.5359 115.712 40.5859C115.946 45.865 114.13 52.2801 112.371 58.4836C110.165 66.2575 108.272 72.9733 110.121 77.8849C110.611 79.1879 111.858 80.0455 113.25 80.0455H113.373L121.392 79.7671H121.459C129.622 79.7671 136.271 86.4049 136.282 94.5798L136.338 141.59C136.338 144.375 135.258 147.003 133.286 148.975C131.315 150.946 128.698 152.037 125.902 152.037H125.813C116.235 151.959 101.857 151.581 87.7347 150.255C78.1566 149.353 68.2666 147.928 60.8825 143.74C58.4323 142.348 55.7816 142.025 53.6544 141.758C52.808 141.657 52.0172 141.557 51.3935 141.401C46.7158 140.299 43.4415 136.267 43.4303 131.6L43.3412 95.1255C43.3301 90.9156 46.3372 87.385 50.4914 86.7391C50.6585 86.7168 50.8367 86.6722 50.9926 86.6165C51.6163 86.4161 66.5181 81.549 77.7779 72.7505C83.2018 68.5072 87.8572 61.9807 90.2183 55.2872C92.5683 48.6382 92.5572 41.5214 92.546 35.7968C92.546 33.0793 92.5349 29.404 93.0027 28.2902C95.0519 26.9872 97.2905 26.3412 99.6628 26.3412ZM99.6628 23C96.7114 23 93.7266 23.8019 90.9311 25.6507C87.3226 28.0341 91.2318 42.379 87.0776 54.1623C84.5828 61.2345 79.8272 66.9146 75.7286 70.111C64.814 78.6422 49.9791 83.4313 49.9791 83.4313C44.2211 84.3334 39.9889 89.3006 40 95.1366L40.0891 131.611C40.1114 137.893 44.5106 143.205 50.6251 144.653C53.0975 145.232 56.4722 145.076 59.2342 146.647C66.6183 150.835 76.085 152.505 87.4229 153.574C101.456 154.9 115.712 155.289 125.791 155.379H125.902C133.509 155.379 139.69 149.208 139.679 141.59L139.624 94.5798C139.612 84.545 131.471 76.437 121.459 76.437H121.325L113.262 76.7154C110.477 69.3202 119.599 52.681 119.064 40.4411C118.674 31.7428 109.397 23 99.6628 23Z" fill="#1DBC24"/>
<path d="M104.196 87.8111C106.29 93.3797 106.312 102.067 104.196 107.435C101.133 115.187 93.6376 121.969 84.9839 123.161C82.8678 123.451 84.1264 125.4 86.2313 125.11C95.5978 123.818 108.272 120.02 111.569 111.612C120.612 88.5016 110.032 76.3953 105.31 80.0038C103.038 81.7635 103.015 84.6592 104.196 87.8111Z" fill="#1DBC24"/>
<path d="M126.649 96.0668C117.338 96.0668 106.145 94.3405 105.666 86.0877C105.533 83.7266 106.245 81.7441 107.849 80.0401C112.07 75.5629 122.439 73.1016 137.051 73.1016C142.353 73.1016 146.217 73.4468 146.262 73.4468C146.306 73.4468 146.362 73.458 146.407 73.458H146.507C146.663 73.4468 146.808 73.4468 146.963 73.4468C151.697 73.4468 155.651 77.7124 155.974 83.1586C156.308 88.7941 152.599 93.6054 147.71 93.8839C147.632 93.8839 147.543 93.895 147.465 93.9173C147.364 93.9284 137.051 96.0668 126.649 96.0668Z" fill="#26F92F"/>
<path d="M137.062 74.7709C142.274 74.7709 146.083 75.105 146.116 75.105C146.217 75.1161 146.317 75.1162 146.417 75.1162C146.484 75.1162 146.551 75.1161 146.606 75.105C146.729 75.0939 146.851 75.0939 146.963 75.0939C150.805 75.0939 154.035 78.669 154.302 83.2241C154.436 85.5853 153.768 87.8239 152.42 89.539C151.162 91.1428 149.446 92.0783 147.609 92.1897C147.442 92.2008 147.275 92.2231 147.119 92.2565C147.018 92.2788 136.85 94.3838 126.648 94.3838C120.723 94.3838 116.023 93.6932 112.693 92.3345C108.116 90.4634 107.436 87.8127 107.336 85.9862C107.225 84.0817 107.782 82.5559 109.073 81.1749C112.916 77.1097 123.118 74.7709 137.062 74.7709ZM137.062 71.4297C124.343 71.4297 103.249 73.3564 103.995 86.1867C104.541 95.4529 115.722 97.7361 126.648 97.7361C137.351 97.7361 147.809 95.542 147.809 95.542C153.623 95.1968 158.033 89.6058 157.643 83.0459C157.276 76.6977 152.554 71.7638 146.974 71.7638C146.785 71.7638 146.606 71.7638 146.417 71.7749C146.417 71.7749 142.508 71.4297 137.062 71.4297Z" fill="#1DBC24"/>
<path d="M133.631 117.271C121.481 117.271 107.002 115.233 107.002 105.499C107.002 95.7647 121.481 93.7266 133.631 93.7266C143.933 93.7266 153.322 95.2301 153.411 95.2412C153.5 95.2524 153.589 95.2635 153.679 95.2635C158.59 95.2635 162.009 100.454 162.009 105.109C162.009 110.021 158.367 115.723 153.679 115.723C153.589 115.723 153.5 115.734 153.411 115.745C153.311 115.767 143.922 117.271 133.631 117.271Z" fill="#26F92F"/>
<path d="M133.631 95.4115C143.788 95.4115 153.055 96.8928 153.144 96.9039C153.322 96.9373 153.5 96.9485 153.678 96.9485C157.487 96.9485 160.338 101.27 160.338 105.123C160.338 109.144 157.265 114.067 153.678 114.067C153.5 114.067 153.322 114.078 153.144 114.111C153.055 114.122 143.777 115.604 133.631 115.604C126.024 115.604 119.977 114.802 115.644 113.209C109.396 110.915 108.672 107.707 108.672 105.502C108.672 103.286 109.396 100.089 115.644 97.7949C119.966 96.2134 126.024 95.4115 133.631 95.4115ZM133.631 92.0703C120.344 92.0703 105.331 94.5094 105.331 105.513C105.331 116.517 120.333 118.956 133.631 118.956C144.2 118.956 153.678 117.419 153.678 117.419C159.425 117.419 163.68 110.837 163.68 105.134C163.68 99.4321 159.425 93.6184 153.678 93.6184C153.678 93.6073 144.189 92.0703 133.631 92.0703Z" fill="#1DBC24"/>
<path d="M142.887 154.286C138.198 154.286 114.442 153.919 107.248 146.713C105.989 145.455 105.388 144.096 105.388 142.559C105.41 136.712 115.422 133.359 132.852 133.359C139.067 133.359 143.878 133.805 143.934 133.805C143.979 133.805 144.034 133.816 144.079 133.816C146.685 133.827 149.146 134.885 150.984 136.812C152.844 138.75 153.857 141.334 153.857 144.073C153.835 149.698 149.436 154.264 144.045 154.264C143.967 154.286 143.578 154.286 142.887 154.286Z" fill="#26F92F"/>
<path d="M132.863 135.052C138.977 135.052 143.733 135.486 143.777 135.498C143.878 135.509 143.978 135.509 144.078 135.509C146.228 135.52 148.255 136.4 149.781 137.992C151.34 139.618 152.197 141.79 152.186 144.096C152.175 148.796 148.522 152.627 144.011 152.627H144H143.933C143.911 152.627 143.532 152.638 142.875 152.638C122.661 152.638 111.68 148.818 108.416 145.555C107.18 144.318 107.047 143.272 107.047 142.592C107.08 137.937 116.959 135.052 132.863 135.052ZM132.863 131.711C120.924 131.711 103.75 133.315 103.728 142.57C103.683 155.333 136.36 155.968 142.887 155.968C143.61 155.968 144.011 155.957 144.011 155.957H144.045C150.371 155.957 155.505 150.656 155.527 144.096C155.55 137.525 150.426 132.179 144.089 132.156C144.089 132.168 139.222 131.711 132.863 131.711Z" fill="#1DBC24"/>
<path d="M138.721 136.615C128.709 136.615 105.432 135.479 105.432 124.954C105.432 116.111 122.216 114.797 132.228 114.797C141.082 114.797 148.711 115.777 148.789 115.788C148.856 115.799 148.934 115.799 149.001 115.799C153.645 115.799 159.058 118.094 159.058 124.564C159.058 130.69 154.269 136.259 149.001 136.259H148.867C148.823 136.27 144.535 136.615 138.721 136.615Z" fill="#26F92F"/>
<path d="M132.228 113.141V116.482C140.948 116.482 148.499 117.451 148.566 117.462C148.711 117.484 148.856 117.484 149.001 117.484C153.055 117.484 157.387 119.344 157.387 124.579C157.387 129.735 153.311 134.602 149.001 134.602C148.912 134.602 148.822 134.602 148.722 134.613C148.678 134.613 144.457 134.959 138.71 134.959C132.64 134.959 123.964 134.569 117.092 132.742C110.465 130.972 107.102 128.354 107.102 124.98C107.102 123.944 107.102 120.792 114.163 118.576C118.562 117.195 124.632 116.493 132.217 116.493L132.228 113.141ZM132.228 113.141C119.353 113.141 103.761 115.168 103.761 124.968C103.761 136.518 125.367 138.3 138.721 138.3C144.69 138.3 149.001 137.944 149.001 137.944C155.282 137.944 160.728 131.45 160.728 124.579C160.728 117.707 155.282 114.143 149.001 114.143C149.001 114.143 141.282 113.141 132.228 113.141Z" fill="#1DBC24"/>
<path d="M61.5056 146.175L56.1708 125.125L53.9434 144.058L61.5056 146.175Z" fill="#1DBC24"/>
</g>
<defs>
<filter id="filter0_d_1562_17212" x="35" y="19" width="133.68" height="142.969" filterUnits="userSpaceOnUse" color-interpolation-filters="sRGB">
<feFlood flood-opacity="0" result="BackgroundImageFix"/>
<feColorMatrix in="SourceAlpha" type="matrix" values="0 0 0 0 0 0 0 0 0 0 0 0 0 0 0 0 0 0 127 0" result="hardAlpha"/>
<feOffset dy="1"/>
<feGaussianBlur stdDeviation="2.5"/>
<feComposite in2="hardAlpha" operator="out"/>
<feColorMatrix type="matrix" values="0 0 0 0 0 0 0 0 0 0 0 0 0 0 0 0 0 0 0.05 0"/>
<feBlend mode="normal" in2="BackgroundImageFix" result="effect1_dropShadow_1562_17212"/>
<feBlend mode="normal" in="SourceGraphic" in2="effect1_dropShadow_1562_17212" result="shape"/>
</filter>
</defs>
</svg>
