<svg width="43" height="48" viewBox="0 0 43 48" fill="none" xmlns="http://www.w3.org/2000/svg">
<path d="M29.4106 30.5391H38.9285V42.2417C38.9285 44.87 36.7979 47.0006 34.1696 47.0006C31.5413 47.0006 29.4106 44.87 29.4106 42.2417V30.5391Z" fill="#B5DCFF" stroke="#308AE4" stroke-width="2"/>
<rect x="26.3394" y="25.3672" width="15.6607" height="3.16923" rx="1.58462" fill="#B5DCFF" stroke="#308AE4" stroke-width="2"/>
<rect x="32.4824" y="9.85938" width="3.375" height="13.5077" fill="#B5DCFF" stroke="#308AE4" stroke-width="2"/>
<path d="M33.3853 3.43243C33.7459 2.79173 33.9673 2.40268 34.154 2.15533C34.1594 2.14826 34.1645 2.14148 34.1696 2.13499C34.1746 2.14148 34.1798 2.14826 34.1851 2.15533C34.3718 2.40268 34.5933 2.79173 34.9539 3.43243L36.6917 6.52012C37.0409 7.14062 37.2501 7.51679 37.3604 7.79399C37.3634 7.80164 37.3663 7.80903 37.369 7.81616C37.3615 7.81727 37.3536 7.81838 37.3455 7.81948C37.0498 7.85935 36.6194 7.86154 35.9074 7.86154H32.4318C31.7198 7.86154 31.2893 7.85935 30.9937 7.81948C30.9855 7.81838 30.9777 7.81727 30.9701 7.81617C30.9729 7.80903 30.9757 7.80164 30.9788 7.79399C31.089 7.51679 31.2983 7.14062 31.6475 6.52012L33.3853 3.43243ZM34.2934 1.99799C34.2934 1.99806 34.2924 1.9989 34.2903 2.00029C34.2924 1.99862 34.2934 1.99792 34.2934 1.99799ZM34.0489 2.00029C34.0468 1.9989 34.0457 1.99806 34.0457 1.99799C34.0457 1.99792 34.0468 1.99862 34.0489 2.00029ZM37.4197 7.98472C37.4196 7.98469 37.4194 7.98344 37.4193 7.9811L37.4197 7.98472ZM37.5374 7.77909C37.5395 7.77805 37.5407 7.77759 37.5408 7.77761C37.5408 7.77764 37.5398 7.77816 37.5374 7.77909ZM30.7984 7.77761C30.7984 7.77759 30.7996 7.77805 30.8017 7.77909C30.7994 7.77816 30.7983 7.77764 30.7984 7.77761ZM30.9198 7.9811C30.9197 7.98344 30.9195 7.98469 30.9195 7.98473L30.9198 7.9811Z" fill="#B5DCFF" stroke="#308AE4" stroke-width="2"/>
<mask id="path-5-inside-1_288_4311" fill="white">
<path fill-rule="evenodd" clip-rule="evenodd" d="M0 9.97039C0 6.59432 2.56405 3.95168 6.14286 2.98438V10.3396H12.2857V2.98438C15.8645 3.95168 18.4286 6.59432 18.4286 9.97039C18.4286 13.0997 16.2256 15.7961 13.0536 17.0212V43.4234C13.0536 45.5438 11.3347 47.2627 9.21429 47.2627C7.09391 47.2627 5.375 45.5438 5.375 43.4234V17.0212C2.20294 15.7961 0 13.0997 0 9.97039Z"/>
</mask>
<path fill-rule="evenodd" clip-rule="evenodd" d="M0 9.97039C0 6.59432 2.56405 3.95168 6.14286 2.98438V10.3396H12.2857V2.98438C15.8645 3.95168 18.4286 6.59432 18.4286 9.97039C18.4286 13.0997 16.2256 15.7961 13.0536 17.0212V43.4234C13.0536 45.5438 11.3347 47.2627 9.21429 47.2627C7.09391 47.2627 5.375 45.5438 5.375 43.4234V17.0212C2.20294 15.7961 0 13.0997 0 9.97039Z" fill="#B5DCFF"/>
<path d="M6.14286 2.98438H8.14286V0.372032L5.62101 1.05366L6.14286 2.98438ZM6.14286 10.3396H4.14286V12.3396H6.14286V10.3396ZM12.2857 10.3396V12.3396H14.2857V10.3396H12.2857ZM12.2857 2.98438L12.8076 1.05366L10.2857 0.372032V2.98438H12.2857ZM13.0536 17.0212L12.333 15.1555L11.0536 15.6496V17.0212H13.0536ZM5.375 17.0212H7.375V15.6496L6.09557 15.1555L5.375 17.0212ZM5.62101 1.05366C1.44884 2.18134 -2 5.4311 -2 9.97039H2C2 7.75754 3.67926 5.72202 6.66471 4.91509L5.62101 1.05366ZM8.14286 10.3396V2.98438H4.14286V10.3396H8.14286ZM12.2857 8.33962H6.14286V12.3396H12.2857V8.33962ZM10.2857 2.98438V10.3396H14.2857V2.98438H10.2857ZM20.4286 9.97039C20.4286 5.4311 16.9797 2.18134 12.8076 1.05366L11.7639 4.91509C14.7493 5.72202 16.4286 7.75754 16.4286 9.97039H20.4286ZM13.7741 18.8869C17.5293 17.4365 20.4286 14.1108 20.4286 9.97039H16.4286C16.4286 12.0886 14.922 14.1556 12.333 15.1555L13.7741 18.8869ZM11.0536 17.0212V43.4234H15.0536V17.0212H11.0536ZM11.0536 43.4234C11.0536 44.4392 10.2301 45.2627 9.21429 45.2627V49.2627C12.4392 49.2627 15.0536 46.6484 15.0536 43.4234H11.0536ZM9.21429 45.2627C8.19848 45.2627 7.375 44.4392 7.375 43.4234H3.375C3.375 46.6484 5.98934 49.2627 9.21429 49.2627V45.2627ZM7.375 43.4234V17.0212H3.375V43.4234H7.375ZM-2 9.97039C-2 14.1108 0.899252 17.4365 4.65443 18.8869L6.09557 15.1555C3.50662 14.1556 2 12.0886 2 9.97039H-2Z" fill="#308AE4" mask="url(#path-5-inside-1_288_4311)"/>
</svg>
